<svg width="195" height="80" viewBox="0 0 195 80" fill="none" xmlns="http://www.w3.org/2000/svg">
<g filter="url(#filter0_d_103_46656)">
<rect x="72.2563" y="4" width="50" height="60" rx="5" fill="#F2CF11"/>
</g>
<rect x="85.2563" y="43.2129" width="30" height="3" rx="1" transform="rotate(-45 85.2563 43.2129)" fill="#323232"/>
<rect x="88.0454" y="22.166" width="30" height="3" rx="1" transform="rotate(45 88.0454 22.166)" fill="#323232"/>
<path d="M176.998 32.9672C176.998 33.3116 177.101 33.6483 177.292 33.9347C177.483 34.2211 177.755 34.4443 178.074 34.5761C178.392 34.7079 178.742 34.7424 179.08 34.6752C179.418 34.6081 179.728 34.4422 179.972 34.1987L185.708 28.4627L191.444 34.1987C191.604 34.3651 191.797 34.4978 192.009 34.5891C192.222 34.6803 192.45 34.7284 192.681 34.7304C192.913 34.7324 193.142 34.6883 193.356 34.6008C193.57 34.5132 193.765 34.3838 193.928 34.2203C194.092 34.0567 194.221 33.8623 194.309 33.6482C194.396 33.4341 194.44 33.2047 194.438 32.9735C194.436 32.7422 194.388 32.5136 194.297 32.3011C194.206 32.0886 194.073 31.8964 193.907 31.7357L186.939 24.7682C186.613 24.4417 186.17 24.2582 185.708 24.2582C185.246 24.2582 184.803 24.4417 184.476 24.7682L177.509 31.7357C177.182 32.0623 176.998 32.5053 176.998 32.9672Z" fill="white"/>
<path d="M176.998 43.4203C176.998 43.7648 177.101 44.1015 177.292 44.3879C177.483 44.6742 177.755 44.8974 178.074 45.0292C178.392 45.1611 178.742 45.1955 179.08 45.1284C179.418 45.0612 179.728 44.8954 179.972 44.6518L185.708 38.9158L191.444 44.6518C191.604 44.8182 191.797 44.9509 192.009 45.0422C192.222 45.1335 192.45 45.1815 192.681 45.1835C192.913 45.1855 193.142 45.1415 193.356 45.0539C193.57 44.9663 193.765 44.837 193.928 44.6734C194.092 44.5099 194.221 44.3154 194.309 44.1013C194.396 43.8872 194.44 43.6579 194.438 43.4266C194.436 43.1953 194.388 42.9667 194.297 42.7542C194.206 42.5417 194.073 42.3495 193.907 42.1888L186.939 35.2213C186.613 34.8948 186.17 34.7113 185.708 34.7113C185.246 34.7113 184.803 34.8948 184.476 35.2213L177.509 42.1888C177.182 42.5154 176.998 42.9584 176.998 43.4203Z" fill="white" fill-opacity="0.25098"/>
<path d="M17.4401 36.4723C17.44 36.1278 17.3379 35.7911 17.1464 35.5047C16.955 35.2183 16.683 34.9951 16.3648 34.8633C16.0465 34.7315 15.6964 34.697 15.3585 34.7642C15.0207 34.8314 14.7104 34.9972 14.4667 35.2408L8.73076 40.9767L2.99478 35.2408C2.8341 35.0744 2.64189 34.9417 2.42938 34.8504C2.21686 34.7591 1.98829 34.7111 1.75701 34.7091C1.52572 34.707 1.29635 34.7511 1.08228 34.8387C0.868215 34.9263 0.673731 35.0556 0.510182 35.2192C0.346633 35.3827 0.217294 35.5772 0.129711 35.7913C0.0421279 36.0053 -0.0019441 36.2347 6.56911e-05 36.466C0.00207548 36.6973 0.0501272 36.9258 0.141417 37.1384C0.232707 37.3509 0.365407 37.5431 0.531773 37.7038L7.49926 44.6713C7.82591 44.9978 8.26888 45.1812 8.73076 45.1812C9.19264 45.1812 9.63562 44.9978 9.96227 44.6713L16.9298 37.7038C17.2564 37.3772 17.44 36.9342 17.4401 36.4723Z" fill="white"/>
<path d="M17.4401 26.0191C17.44 25.6747 17.3379 25.338 17.1464 25.0516C16.955 24.7652 16.683 24.542 16.3648 24.4102C16.0465 24.2784 15.6964 24.2439 15.3585 24.3111C15.0207 24.3783 14.7104 24.5441 14.4667 24.7876L8.73076 30.5236L2.99478 24.7876C2.8341 24.6213 2.64189 24.4886 2.42938 24.3973C2.21686 24.306 1.98829 24.2579 1.75701 24.2559C1.52572 24.2539 1.29635 24.298 1.08228 24.3856C0.868215 24.4732 0.673731 24.6025 0.510182 24.766C0.346633 24.9296 0.217294 25.1241 0.129711 25.3381C0.0421279 25.5522 -0.0019441 25.7816 6.56911e-05 26.0129C0.00207548 26.2442 0.0501272 26.4727 0.141417 26.6852C0.232707 26.8978 0.365407 27.09 0.531773 27.2506L7.49926 34.2181C7.82591 34.5447 8.26888 34.7281 8.73076 34.7281C9.19264 34.7281 9.63562 34.5447 9.96227 34.2181L16.9298 27.2506C17.2564 26.9241 17.44 26.4811 17.4401 26.0191Z" fill="white" fill-opacity="0.25098"/>
<defs>
<filter id="filter0_d_103_46656" x="66.2563" y="0" width="70" height="80" filterUnits="userSpaceOnUse" color-interpolation-filters="sRGB">
<feFlood flood-opacity="0" result="BackgroundImageFix"/>
<feColorMatrix in="SourceAlpha" type="matrix" values="0 0 0 0 0 0 0 0 0 0 0 0 0 0 0 0 0 0 127 0" result="hardAlpha"/>
<feOffset dx="4" dy="6"/>
<feGaussianBlur stdDeviation="5"/>
<feComposite in2="hardAlpha" operator="out"/>
<feColorMatrix type="matrix" values="0 0 0 0 0 0 0 0 0 0 0 0 0 0 0 0 0 0 0.25 0"/>
<feBlend mode="normal" in2="BackgroundImageFix" result="effect1_dropShadow_103_46656"/>
<feBlend mode="normal" in="SourceGraphic" in2="effect1_dropShadow_103_46656" result="shape"/>
</filter>
</defs>
</svg>
