<svg width="21" height="18" viewBox="0 0 21 18" fill="none" xmlns="http://www.w3.org/2000/svg">
<path d="M8.70889 17.4394C9.05335 17.4393 9.39005 17.3371 9.67643 17.1457C9.96281 16.9543 10.186 16.6823 10.3178 16.3641C10.4496 16.0458 10.4841 15.6956 10.4169 15.3578C10.3498 15.02 10.1839 14.7096 9.9404 14.466L4.20441 8.73003L9.94039 2.99405C10.1068 2.83336 10.2395 2.64116 10.3308 2.42864C10.422 2.21613 10.4701 1.98756 10.4721 1.75628C10.4741 1.52499 10.43 1.29562 10.3425 1.08155C10.2549 0.867482 10.1255 0.672999 9.96198 0.50945C9.79844 0.345901 9.60395 0.216561 9.38988 0.128978C9.17581 0.0413956 8.94644 -0.00267632 8.71516 -0.0006665C8.48388 0.00134332 8.25531 0.0493951 8.04279 0.140685C7.83028 0.231975 7.63807 0.364675 7.47739 0.531041L0.509901 7.49853C0.18335 7.82518 -9.46445e-05 8.26815 -9.46042e-05 8.73003C-9.45638e-05 9.19191 0.18335 9.63489 0.509901 9.96154L7.47739 16.929C7.80398 17.2557 8.24696 17.4393 8.70889 17.4394Z" fill="white"/>
<path d="M19.162 17.4394C19.5065 17.4393 19.8432 17.3371 20.1296 17.1457C20.4159 16.9543 20.6391 16.6823 20.7709 16.3641C20.9028 16.0458 20.9372 15.6956 20.8701 15.3578C20.8029 15.02 20.6371 14.7096 20.3935 14.466L14.6575 8.73003L20.3935 2.99405C20.5599 2.83336 20.6926 2.64116 20.7839 2.42864C20.8752 2.21613 20.9232 1.98756 20.9252 1.75628C20.9272 1.52499 20.8832 1.29562 20.7956 1.08155C20.708 0.867482 20.5787 0.672999 20.4151 0.50945C20.2516 0.345901 20.0571 0.216561 19.843 0.128978C19.6289 0.0413956 19.3996 -0.00267632 19.1683 -0.0006665C18.937 0.00134332 18.7084 0.0493951 18.4959 0.140685C18.2834 0.231975 18.0912 0.364675 17.9305 0.531041L10.963 7.49853C10.6365 7.82518 10.453 8.26815 10.453 8.73003C10.453 9.19191 10.6365 9.63489 10.963 9.96154L17.9305 16.929C18.2571 17.2557 18.7001 17.4393 19.162 17.4394Z" fill="white" fill-opacity="0.25098"/>
</svg>
