<svg width="21" height="18" viewBox="0 0 21 18" fill="none" xmlns="http://www.w3.org/2000/svg">
<path d="M12.2164 6.29425e-05C11.8719 0.000137329 11.5352 0.102335 11.2489 0.293739C10.9625 0.485144 10.7393 0.75716 10.6075 1.0754C10.4757 1.39364 10.4412 1.74381 10.5084 2.08165C10.5755 2.41949 10.7414 2.72983 10.9849 2.97344L16.7209 8.70942L10.9849 14.4454C10.8185 14.6061 10.6858 14.7983 10.5945 15.0108C10.5033 15.2233 10.4552 15.4519 10.4532 15.6832C10.4512 15.9145 10.4953 16.1438 10.5828 16.3579C10.6704 16.572 10.7998 16.7665 10.9633 16.93C11.1269 17.0936 11.3213 17.2229 11.5354 17.3105C11.7495 17.3981 11.9788 17.4421 12.2101 17.4401C12.4414 17.4381 12.67 17.3901 12.8825 17.2988C13.095 17.2075 13.2872 17.0748 13.4479 16.9084L20.4154 9.94093C20.7419 9.61428 20.9254 9.1713 20.9254 8.70942C20.9254 8.24754 20.7419 7.80457 20.4154 7.47792L13.4479 0.510429C13.1213 0.183743 12.6783 0.000162125 12.2164 6.29425e-05Z" fill="white"/>
<path d="M1.76328 6.29425e-05C1.41882 0.000137329 1.08212 0.102335 0.795739 0.293739C0.509358 0.485144 0.286155 0.75716 0.154348 1.0754C0.0225402 1.39364 -0.0119545 1.74381 0.0552252 2.08165C0.122405 2.41949 0.288243 2.72983 0.531773 2.97344L6.26776 8.70942L0.531773 14.4454C0.365407 14.6061 0.232707 14.7983 0.141417 15.0108C0.0501273 15.2233 0.00207557 15.4519 6.57679e-05 15.6832C-0.00194403 15.9145 0.0421279 16.1438 0.129711 16.3579C0.217294 16.572 0.346633 16.7665 0.510182 16.93C0.673731 17.0936 0.868215 17.2229 1.08228 17.3105C1.29635 17.3981 1.52572 17.4421 1.75701 17.4401C1.98829 17.4381 2.21686 17.3901 2.42938 17.2988C2.64189 17.2075 2.8341 17.0748 2.99478 16.9084L9.96227 9.94093C10.2888 9.61428 10.4723 9.1713 10.4723 8.70942C10.4723 8.24754 10.2888 7.80457 9.96227 7.47792L2.99478 0.510429C2.66819 0.183743 2.22521 0.000162125 1.76328 6.29425e-05Z" fill="white" fill-opacity="0.25098"/>
</svg>
