<svg width="211" height="149" viewBox="0 0 211 149" fill="none" xmlns="http://www.w3.org/2000/svg">
<path d="M0.0121976 128.642H2.75666L2.74446 108.504L11.8195 121.805H11.9597L21.0225 108.461L21.0347 128.63H23.8463L23.8341 103.728L20.986 103.734L11.9231 117.322L2.84204 103.74H0L0.0121976 128.642Z" fill="white"/>
<path d="M38.2881 103.722H35.4766V128.624H38.2881V103.722Z" fill="white"/>
<path d="M61.3163 129.032C65.8355 129.032 68.6775 127.428 71.2756 124.793L69.446 122.842C67.0674 125.123 64.8231 126.434 61.4078 126.44C55.9188 126.44 51.7656 121.927 51.7656 116.164C51.7656 110.4 55.8883 105.881 61.4017 105.875C64.7743 105.875 67.1284 107.302 69.2264 109.29L71.056 107.296C68.5677 104.948 65.9331 103.283 61.4138 103.283C54.0953 103.283 48.8259 109.126 48.832 116.164C48.832 123.385 54.138 129.038 61.3224 129.032" fill="white"/>
<path d="M80.5356 128.599H83.3472L83.3411 117.39L97.7098 117.384L97.7159 128.587H100.521L100.509 103.692H97.6976L97.7037 114.755L83.335 114.761L83.3289 103.698H80.5234L80.5356 128.599Z" fill="white"/>
<path d="M111.915 128.581L130.089 128.575V126.013L114.726 126.019L114.72 117.304L128.308 117.298L128.302 114.737L114.72 114.743L114.714 106.241L129.9 106.235V103.673L111.902 103.685L111.915 128.581Z" fill="white"/>
<path d="M140.09 128.569L156.917 128.556V125.958L142.902 125.97L142.89 103.667H140.078L140.09 128.569Z" fill="white"/>
<path d="M166.46 128.55L183.28 128.544V125.946L169.265 125.958L169.253 103.655H166.441L166.46 128.55Z" fill="white"/>
<path d="M192.827 128.538L211.001 128.532V125.964L195.632 125.977L195.626 117.261L209.214 117.255V114.694L195.626 114.7L195.62 106.198L210.812 106.192V103.631L192.809 103.643L192.827 128.538Z" fill="white"/>
<path d="M174.668 146.676H175.54V138.443H174.668V146.676ZM169.978 146.103C169.191 146.103 168.52 145.676 168.514 144.95C168.508 144.224 169.124 143.73 170.216 143.73C170.79 143.731 171.361 143.813 171.911 143.974V144.541C171.911 145.462 171.051 146.103 169.978 146.103ZM169.813 146.804C170.216 146.814 170.615 146.73 170.978 146.557C171.341 146.384 171.659 146.128 171.905 145.81V146.676H172.759V143.12C172.777 142.809 172.733 142.498 172.628 142.204C172.523 141.911 172.36 141.642 172.149 141.413C171.893 141.188 171.596 141.015 171.274 140.906C170.951 140.796 170.611 140.75 170.271 140.772C169.537 140.774 168.813 140.943 168.154 141.266L168.417 141.98C168.965 141.709 169.568 141.565 170.179 141.559C171.271 141.559 171.899 142.102 171.899 143.133V143.316C171.324 143.144 170.725 143.061 170.124 143.072C168.648 143.072 167.636 143.718 167.636 144.968C167.636 146.219 168.722 146.798 169.813 146.798M165.196 146.676H166.069V140.882H165.203L165.196 146.676ZM165.142 139.589H166.13V138.632H165.142V139.589ZM161.318 146.81C161.773 146.816 162.224 146.718 162.635 146.522C163.046 146.326 163.407 146.039 163.69 145.682L163.117 145.157C162.905 145.42 162.639 145.635 162.337 145.787C162.035 145.938 161.704 146.023 161.366 146.036C160.785 146.014 160.234 145.77 159.827 145.354C159.42 144.938 159.189 144.381 159.181 143.799C159.173 143.217 159.389 142.654 159.785 142.227C160.18 141.8 160.725 141.541 161.305 141.504C161.647 141.508 161.984 141.587 162.293 141.734C162.602 141.881 162.874 142.094 163.092 142.358L163.647 141.748C163.315 141.361 162.89 141.064 162.412 140.884C161.935 140.703 161.42 140.646 160.914 140.716C160.409 140.787 159.929 140.983 159.519 141.287C159.109 141.591 158.782 141.993 158.568 142.456C158.353 142.92 158.259 143.429 158.293 143.939C158.327 144.448 158.488 144.941 158.761 145.371C159.035 145.802 159.412 146.158 159.859 146.405C160.306 146.652 160.807 146.783 161.318 146.786M152.554 143.407C152.565 142.903 152.766 142.421 153.116 142.059C153.467 141.696 153.941 141.478 154.444 141.449C155.591 141.449 156.201 142.346 156.304 143.407H152.554ZM152.554 144.102H157.158C157.163 144.001 157.163 143.899 157.158 143.797C157.158 142.09 156.17 140.717 154.45 140.717C153.642 140.732 152.872 141.067 152.31 141.649C151.749 142.232 151.441 143.013 151.456 143.822C151.47 144.63 151.806 145.4 152.388 145.962C152.97 146.523 153.751 146.831 154.56 146.816C155.016 146.829 155.469 146.737 155.885 146.547C156.3 146.358 156.667 146.077 156.957 145.725L156.42 145.237C156.193 145.498 155.911 145.706 155.596 145.848C155.28 145.991 154.937 146.063 154.591 146.06C154.066 146.065 153.56 145.867 153.179 145.506C152.798 145.145 152.571 144.651 152.548 144.127M147.498 146.029C146.92 145.999 146.377 145.749 145.979 145.33C145.58 144.91 145.359 144.354 145.359 143.776C145.359 143.198 145.58 142.642 145.979 142.222C146.377 141.803 146.92 141.553 147.498 141.522C147.783 141.528 148.063 141.592 148.322 141.71C148.582 141.828 148.814 141.997 149.006 142.208C149.198 142.418 149.344 142.665 149.437 142.935C149.53 143.204 149.568 143.489 149.547 143.773C149.575 144.058 149.543 144.346 149.453 144.618C149.363 144.891 149.218 145.141 149.025 145.354C148.833 145.566 148.598 145.736 148.336 145.852C148.074 145.969 147.791 146.029 147.504 146.029M144.564 148.469H145.43V145.578C145.669 145.954 145.999 146.263 146.389 146.476C146.779 146.689 147.218 146.8 147.662 146.798C148.409 146.716 149.099 146.361 149.6 145.802C150.101 145.242 150.378 144.518 150.378 143.767C150.378 143.016 150.101 142.291 149.6 141.732C149.099 141.173 148.409 140.818 147.662 140.736C147.211 140.741 146.769 140.863 146.379 141.089C145.989 141.316 145.665 141.64 145.436 142.029V140.882H144.57L144.564 148.469ZM140.905 146.78C142.064 146.78 142.972 146.139 142.972 145.041C142.972 143.944 142.009 143.62 141.106 143.352C140.332 143.114 139.612 142.901 139.612 142.352C139.612 141.803 140.051 141.486 140.734 141.486C141.349 141.508 141.945 141.703 142.454 142.047L142.851 141.394C142.222 140.998 141.495 140.787 140.753 140.785C139.606 140.785 138.777 141.449 138.777 142.449C138.777 143.45 139.789 143.852 140.704 144.114C141.466 144.328 142.155 144.554 142.155 145.133C142.155 145.712 141.649 146.078 140.935 146.078C140.2 146.058 139.492 145.799 138.917 145.34L138.484 145.95C139.169 146.491 140.014 146.791 140.887 146.804M130.683 145.487C130.42 145.492 130.158 145.445 129.914 145.348C129.669 145.251 129.446 145.106 129.258 144.921C129.071 144.736 128.922 144.515 128.821 144.272C128.72 144.029 128.669 143.768 128.671 143.505C128.664 143.24 128.711 142.977 128.811 142.732C128.91 142.486 129.058 142.264 129.247 142.079C129.436 141.893 129.661 141.749 129.908 141.654C130.155 141.56 130.419 141.517 130.683 141.529C130.954 141.514 131.224 141.553 131.479 141.644C131.734 141.736 131.968 141.877 132.167 142.06C132.367 142.243 132.527 142.464 132.64 142.71C132.753 142.956 132.816 143.222 132.824 143.492C132.815 143.764 132.753 144.032 132.641 144.279C132.528 144.527 132.368 144.75 132.169 144.935C131.97 145.121 131.736 145.265 131.481 145.359C131.226 145.454 130.955 145.497 130.683 145.487ZM130.683 148.536C131.086 148.56 131.49 148.504 131.871 148.371C132.252 148.238 132.603 148.031 132.903 147.762C133.158 147.485 133.355 147.16 133.481 146.806C133.608 146.452 133.662 146.076 133.641 145.7V140.882H132.775V141.931C132.506 141.542 132.14 141.23 131.715 141.023C131.289 140.817 130.817 140.724 130.345 140.753C129.873 140.782 129.416 140.933 129.019 141.19C128.622 141.447 128.298 141.803 128.079 142.222C127.859 142.641 127.751 143.109 127.766 143.582C127.78 144.055 127.916 144.516 128.161 144.921C128.406 145.326 128.751 145.661 129.163 145.894C129.575 146.126 130.04 146.249 130.513 146.249C130.964 146.248 131.408 146.137 131.805 145.924C132.203 145.711 132.543 145.404 132.794 145.029V145.712C132.82 145.995 132.783 146.28 132.685 146.546C132.587 146.813 132.432 147.054 132.229 147.253C132.026 147.451 131.782 147.602 131.513 147.695C131.245 147.787 130.959 147.818 130.677 147.786C129.87 147.789 129.084 147.528 128.439 147.042L128.073 147.713C128.848 148.249 129.771 148.531 130.714 148.518M121.212 146.688H122.078V143.364C122.061 143.127 122.094 142.89 122.174 142.666C122.254 142.442 122.38 142.238 122.543 142.066C122.707 141.894 122.905 141.757 123.124 141.666C123.343 141.575 123.579 141.53 123.816 141.535C124.841 141.535 125.426 142.206 125.426 143.285V146.682H126.298V143.072C126.328 142.767 126.291 142.461 126.191 142.172C126.091 141.883 125.93 141.62 125.718 141.399C125.507 141.178 125.251 141.006 124.967 140.894C124.682 140.781 124.377 140.732 124.072 140.748C123.669 140.736 123.269 140.835 122.919 141.036C122.568 141.236 122.279 141.529 122.084 141.882V140.882H121.218L121.212 146.688ZM118.333 146.688H119.199V140.882H118.315L118.333 146.688ZM118.272 139.601H119.26V138.644H118.272V139.601ZM111.326 146.688H112.192V143.383C112.176 143.145 112.209 142.907 112.29 142.684C112.371 142.46 112.497 142.256 112.661 142.084C112.825 141.912 113.023 141.776 113.243 141.684C113.462 141.593 113.698 141.548 113.936 141.553C114.961 141.553 115.546 142.224 115.546 143.303V146.7H116.418V143.09C116.449 142.786 116.413 142.478 116.313 142.189C116.214 141.9 116.052 141.636 115.841 141.415C115.629 141.194 115.372 141.022 115.088 140.91C114.803 140.798 114.498 140.749 114.192 140.766C113.788 140.755 113.388 140.855 113.037 141.055C112.685 141.255 112.395 141.547 112.198 141.901V138.491H111.332L111.326 146.688ZM108.728 146.792C109.091 146.801 109.451 146.715 109.771 146.542V145.822C109.511 145.957 109.222 146.026 108.929 146.023C108.797 146.043 108.662 146.033 108.535 145.992C108.408 145.951 108.292 145.881 108.197 145.787C108.102 145.694 108.03 145.579 107.986 145.453C107.943 145.327 107.929 145.192 107.947 145.06V141.663H109.777V140.882H107.947V139.132H107.081V140.882H106.27V141.651H107.081V145.151C107.056 145.373 107.081 145.598 107.155 145.81C107.228 146.021 107.349 146.212 107.507 146.37C107.666 146.528 107.858 146.648 108.069 146.721C108.281 146.794 108.506 146.818 108.728 146.792ZM100.629 143.462C100.64 142.959 100.84 142.478 101.189 142.115C101.538 141.753 102.011 141.535 102.513 141.504C103.66 141.504 104.27 142.401 104.343 143.462H100.629ZM100.629 144.163H105.239C105.244 144.062 105.244 143.96 105.239 143.858C105.239 142.151 104.245 140.778 102.525 140.809C101.773 140.898 101.082 141.263 100.584 141.833C100.086 142.404 99.8189 143.139 99.8333 143.896C99.8478 144.652 100.143 145.377 100.662 145.928C101.181 146.479 101.887 146.817 102.641 146.877C103.097 146.889 103.55 146.796 103.965 146.607C104.38 146.418 104.747 146.137 105.038 145.786L104.495 145.304C104.266 145.563 103.984 145.77 103.669 145.912C103.353 146.054 103.011 146.127 102.666 146.127C102.14 146.132 101.633 145.934 101.251 145.573C100.869 145.213 100.642 144.718 100.616 144.194M89.4007 146.749H90.2606V143.431C90.2406 143.204 90.2671 142.975 90.3385 142.758C90.4099 142.541 90.5247 142.341 90.6758 142.17C90.827 141.998 91.0115 141.86 91.2179 141.762C91.4244 141.665 91.6486 141.61 91.8768 141.602C92.8038 141.602 93.3771 142.212 93.3771 143.328V146.749H94.2309V143.395C94.2061 143.169 94.2291 142.94 94.2983 142.724C94.3675 142.507 94.4814 142.308 94.6326 142.138C94.7838 141.969 94.969 141.833 95.1761 141.739C95.3832 141.646 95.6077 141.597 95.8349 141.596C96.7802 141.596 97.3413 142.206 97.3474 143.352V146.749H98.2134V143.151C98.2134 141.712 97.3901 140.815 96.0545 140.815C95.6406 140.808 95.2325 140.912 94.8723 141.116C94.512 141.319 94.2127 141.616 94.0053 141.974C93.8438 141.618 93.5802 141.317 93.248 141.111C92.9158 140.905 92.5299 140.802 92.139 140.815C91.7555 140.813 91.3785 140.914 91.0479 141.108C90.7172 141.303 90.4452 141.583 90.2606 141.919V140.882H89.3946L89.4007 146.749ZM84.8083 146.139C84.5181 146.134 84.2319 146.071 83.9664 145.954C83.7008 145.836 83.4612 145.668 83.2614 145.457C83.0617 145.247 82.9057 144.998 82.8028 144.727C82.6998 144.456 82.6517 144.167 82.6615 143.877C82.6459 143.586 82.6891 143.295 82.7887 143.022C82.8882 142.748 83.042 142.498 83.2409 142.285C83.4397 142.073 83.6794 141.903 83.9456 141.785C84.2118 141.668 84.499 141.605 84.79 141.602C85.0818 141.607 85.3695 141.671 85.6366 141.788C85.9036 141.906 86.1446 142.076 86.3455 142.287C86.5464 142.499 86.7032 142.749 86.8068 143.021C86.9104 143.294 86.9587 143.585 86.949 143.877C86.9629 144.167 86.918 144.458 86.817 144.73C86.7159 145.003 86.5607 145.253 86.3608 145.464C86.1609 145.675 85.9203 145.844 85.6535 145.96C85.3867 146.076 85.0992 146.137 84.8083 146.139ZM84.8083 146.914C85.4114 146.914 86.001 146.735 86.5024 146.4C87.0039 146.065 87.3948 145.589 87.6256 145.031C87.8564 144.474 87.9167 143.861 87.7991 143.27C87.6814 142.678 87.391 142.135 86.9645 141.708C86.5381 141.282 85.9947 140.991 85.4032 140.874C84.8117 140.756 84.1985 140.816 83.6413 141.047C83.0841 141.278 82.6079 141.669 82.2728 142.17C81.9377 142.672 81.7589 143.261 81.7589 143.864C81.7589 144.673 82.0802 145.449 82.652 146.021C83.2239 146.593 83.9995 146.914 84.8083 146.914ZM78.4777 146.914C79.6365 146.914 80.5452 146.273 80.5452 145.17C80.5452 144.066 79.5755 143.749 78.679 143.48C77.8983 143.242 77.1848 143.035 77.1787 142.48C77.1726 141.925 77.6178 141.614 78.3009 141.614C78.9173 141.636 79.5151 141.831 80.0268 142.175L80.4171 141.522C79.7926 141.119 79.0684 140.898 78.3253 140.882C77.1787 140.882 76.3493 141.547 76.3493 142.553C76.3493 143.559 77.3616 143.956 78.2704 144.212C79.0388 144.426 79.7219 144.651 79.7219 145.237C79.7219 145.822 79.2218 146.182 78.5021 146.182C77.7681 146.16 77.0613 145.899 76.4895 145.438L76.0504 146.048C76.7393 146.587 77.585 146.886 78.4594 146.902M69.482 146.902C70.6408 146.902 71.5495 146.261 71.5495 145.163C71.5495 144.066 70.5798 143.742 69.6833 143.474C68.9087 143.236 68.1891 143.023 68.1891 142.474C68.1891 141.925 68.6221 141.608 69.3112 141.608C69.9257 141.63 70.5216 141.825 71.0311 142.169L71.4275 141.516C70.8025 141.11 70.0752 140.888 69.3295 140.876C68.1891 140.876 67.3535 141.541 67.3535 142.541C67.3535 143.541 68.3659 143.95 69.2807 144.206C70.0431 144.419 70.7323 144.645 70.7323 145.224C70.7323 145.804 70.2261 146.176 69.5125 146.176C68.7771 146.151 68.0692 145.89 67.4938 145.432L67.0547 146.042C67.751 146.588 68.609 146.889 69.4942 146.896M62.0476 148.621C62.9258 148.621 63.4869 148.182 63.9809 146.981L66.4204 140.974H65.4995L63.6333 145.761L61.517 140.913H60.5595L63.2063 146.706C62.8587 147.53 62.5294 147.798 61.9866 147.798C61.6683 147.808 61.3529 147.734 61.0718 147.585L60.779 148.268C61.1558 148.463 61.5744 148.564 61.9988 148.56M56.7111 146.158C55.9244 146.158 55.2535 145.731 55.2535 144.999C55.2535 144.267 55.8634 143.81 56.949 143.81C57.5229 143.81 58.0938 143.892 58.6445 144.053V144.596C58.6445 145.517 57.7784 146.158 56.7111 146.158ZM56.5465 146.853C56.9484 146.865 57.3476 146.782 57.7113 146.61C58.0749 146.439 58.3926 146.183 58.6384 145.865V146.731H59.4922V143.175C59.5116 142.864 59.4675 142.552 59.3627 142.259C59.2579 141.965 59.0944 141.696 58.8823 141.468C58.6266 141.243 58.3291 141.07 58.0068 140.96C57.6845 140.851 57.3437 140.805 57.0039 140.827C56.2698 140.827 55.5456 140.996 54.8876 141.321L55.1498 142.029C55.6989 141.76 56.3012 141.618 56.9124 141.614C58.0041 141.614 58.6384 142.151 58.6384 143.187V143.364C58.0593 143.199 57.4597 143.117 56.8575 143.12C55.3816 143.12 54.3692 143.773 54.3753 145.023C54.3814 146.273 55.4548 146.853 56.5465 146.853ZM46.9592 146.786H47.7276L49.3011 142.199L50.8624 146.786H51.6186L53.6678 140.925H52.7469L51.2283 145.59L49.6426 140.882H48.9169L47.3617 145.572L45.8309 140.9H44.9039L46.9592 146.786ZM42.5436 146.743H43.4097V138.534H42.5192L42.5436 146.743ZM37.8476 146.176C37.0608 146.176 36.3899 145.749 36.3899 145.017C36.3899 144.285 36.9998 143.797 38.0854 143.797C38.6618 143.797 39.2351 143.881 39.787 144.047V144.584C39.787 145.505 38.9209 146.151 37.8476 146.151M37.6829 146.847C38.0849 146.859 38.484 146.776 38.8477 146.604C39.2113 146.433 39.529 146.177 39.7748 145.859V146.725H40.6286V143.175C40.6495 142.864 40.6061 142.552 40.5012 142.258C40.3963 141.964 40.232 141.695 40.0187 141.468C39.7646 141.24 39.4675 141.065 39.1449 140.954C38.8223 140.843 38.4807 140.798 38.1403 140.821C37.408 140.825 36.6862 140.996 36.0301 141.321L36.2863 142.029C36.8353 141.76 37.4377 141.618 38.0488 141.614C39.1405 141.614 39.7748 142.151 39.7748 143.187V143.364C39.1965 143.195 38.5963 143.113 37.9939 143.12C36.5241 143.12 35.5117 143.773 35.5117 145.023C35.5117 146.273 36.5912 146.853 37.6829 146.853" fill="white"/>
<path fill-rule="evenodd" clip-rule="evenodd" d="M167.352 84.7732C167.451 84.6058 167.515 84.4198 167.539 84.2267C167.563 84.0336 167.547 83.8377 167.492 83.651L141.706 1.70762C141.615 1.40727 141.429 1.14449 141.176 0.958671C140.923 0.772851 140.617 0.673995 140.303 0.67692H136.357C136.126 0.673654 135.898 0.727627 135.692 0.834034C135.487 0.940441 135.311 1.09598 135.18 1.2868C135.04 1.46997 134.947 1.68464 134.909 1.91212C134.87 2.13959 134.888 2.37298 134.961 2.59194L160.747 84.5536H156.288L130.185 1.71371C130.094 1.41337 129.909 1.15059 129.656 0.96477C129.403 0.778949 129.097 0.680093 128.783 0.683019H124.837C124.605 0.680352 124.376 0.734542 124.169 0.840855C123.963 0.947168 123.786 1.10237 123.654 1.2929C123.515 1.47708 123.424 1.69198 123.387 1.91925C123.349 2.14652 123.368 2.37941 123.44 2.59804L149.269 84.5597H144.103C144.164 84.3196 144.164 84.068 144.103 83.8279L119.122 2.95177C118.858 2.09593 118.327 1.34717 117.607 0.815302C116.886 0.283437 116.014 -0.00354004 115.118 -0.00354004C114.223 -0.00354004 113.351 0.283437 112.63 0.815302C111.91 1.34717 111.378 2.09593 111.115 2.95177L105.193 22.2057L98.7584 1.73201C98.6686 1.43215 98.4839 1.16955 98.232 0.983679C97.9801 0.79781 97.6747 0.698723 97.3617 0.701315H93.4158C93.1839 0.699174 92.9549 0.753594 92.7488 0.859862C92.5426 0.96613 92.3655 1.12104 92.2327 1.31119C92.0934 1.49484 92.0007 1.70949 91.9624 1.93678C91.9242 2.16406 91.9416 2.39723 92.0131 2.61634L101.716 33.5433L99.4902 40.7887L87.2133 1.73811C87.1235 1.43825 86.9388 1.17565 86.687 0.989778C86.4351 0.803909 86.1297 0.704822 85.8167 0.707414H81.8708C81.6387 0.704215 81.4094 0.758174 81.203 0.864532C80.9967 0.97089 80.8197 1.12638 80.6876 1.31729C80.5541 1.50274 80.4676 1.7179 80.4357 1.94422C80.4038 2.17053 80.4275 2.40121 80.5047 2.61634L96.0261 52.0532L93.8 59.2558L76.4246 2.97617C76.1607 2.12032 75.6295 1.37156 74.9089 0.839697C74.1884 0.307833 73.3163 0.0208551 72.4207 0.0208551C71.5251 0.0208551 70.6531 0.307833 69.9325 0.839697C69.2119 1.37156 68.6807 2.12032 68.4169 2.97617L43.4728 84.0901C43.3681 84.4248 43.3875 84.786 43.5275 85.1075C43.6675 85.429 43.9188 85.6892 44.2351 85.8405L48.1811 87.7799C55.9175 91.5006 64.3941 93.4269 72.9788 93.4152C80.1776 93.4715 87.3081 92.0171 93.9098 89.146C100.816 91.9743 108.208 93.4246 115.67 93.4152C120.165 93.4152 153.275 94.0251 166.479 85.4867C166.783 85.408 167.051 85.2298 167.242 84.9805C167.425 84.8647 167.4 84.822 167.352 84.7732ZM85.1946 77.8206C85.1055 77.9931 84.9813 78.1451 84.8301 78.2669C84.6789 78.3887 84.5039 78.4776 84.3164 78.528C80.6359 79.5806 76.8251 80.1082 72.9971 80.0954C68.8253 80.0972 64.674 79.5121 60.6653 78.3573C60.4802 78.3021 60.3079 78.2109 60.1581 78.0891C60.0083 77.9672 59.8839 77.8171 59.7922 77.6472C59.7004 77.4773 59.643 77.2909 59.6233 77.0988C59.6036 76.9067 59.622 76.7126 59.6773 76.5276L71.0393 39.5811C71.1329 39.2823 71.3194 39.0211 71.5717 38.8357C71.824 38.6503 72.1289 38.5503 72.4421 38.5503C72.7552 38.5503 73.0601 38.6503 73.3124 38.8357C73.5648 39.0211 73.7513 39.2823 73.8448 39.5811L85.3044 76.7106C85.3656 76.8959 85.3875 77.092 85.3686 77.2863C85.3497 77.4806 85.2904 77.6688 85.1946 77.8389V77.8206ZM102.479 77.6254C102.383 77.4553 102.324 77.2671 102.305 77.0729C102.286 76.8786 102.308 76.6825 102.369 76.4971L113.731 39.5384C113.824 39.2396 114.011 38.9785 114.263 38.793C114.516 38.6076 114.821 38.5076 115.134 38.5076C115.447 38.5076 115.752 38.6076 116.004 38.793C116.256 38.9785 116.443 39.2396 116.536 39.5384L127.996 76.6679C128.053 76.8529 128.073 77.0474 128.054 77.24C128.035 77.4326 127.978 77.6196 127.886 77.7899C127.794 77.9602 127.669 78.1105 127.518 78.232C127.367 78.3535 127.194 78.4438 127.008 78.4975C123.328 79.551 119.517 80.0767 115.689 80.0588C111.519 80.0597 107.371 79.4767 103.363 78.3268C103.174 78.2802 102.997 78.1956 102.841 78.0781C102.686 77.9607 102.557 77.8129 102.46 77.6437L102.479 77.6254Z" fill="#F2CF11"/>
<path fill-rule="evenodd" clip-rule="evenodd" d="M66.9891 69.3249C66.4523 69.3261 65.928 69.4865 65.4823 69.7857C65.0367 70.0849 64.6898 70.5096 64.4855 71.0059C64.2812 71.5023 64.2287 72.0481 64.3346 72.5743C64.4405 73.1005 64.7001 73.5835 65.0805 73.9622C65.4609 74.3409 65.945 74.5983 66.4717 74.7019C66.9984 74.8054 67.544 74.7504 68.0394 74.5439C68.5349 74.3374 68.958 73.9886 69.2552 73.5416C69.5524 73.0946 69.7104 72.5696 69.7092 72.0328C69.7084 71.6764 69.6374 71.3236 69.5003 70.9947C69.3631 70.6657 69.1625 70.367 68.91 70.1155C68.6574 69.8641 68.3577 69.6648 68.0282 69.5292C67.6986 69.3935 67.3455 69.3241 66.9891 69.3249Z" fill="#F2CF11"/>
<path fill-rule="evenodd" clip-rule="evenodd" d="M77.7984 69.1482C77.2496 69.1482 76.7131 69.3109 76.2567 69.6158C75.8004 69.9207 75.4447 70.3541 75.2347 70.8612C75.0246 71.3682 74.9697 71.9262 75.0768 72.4645C75.1838 73.0028 75.4481 73.4972 75.8362 73.8853C76.2243 74.2734 76.7187 74.5377 77.257 74.6447C77.7953 74.7518 78.3533 74.6969 78.8603 74.4868C79.3674 74.2768 79.8008 73.9211 80.1057 73.4648C80.4106 73.0085 80.5733 72.4719 80.5733 71.9231C80.5733 71.1871 80.281 70.4813 79.7606 69.9609C79.2402 69.4405 78.5343 69.1482 77.7984 69.1482Z" fill="#F2CF11"/>
<path fill-rule="evenodd" clip-rule="evenodd" d="M72.4156 60.6159C72.0043 60.6159 71.6022 60.7379 71.2602 60.9664C70.9182 61.1949 70.6517 61.5197 70.4942 61.8998C70.3368 62.2798 70.2957 62.6979 70.3759 63.1013C70.4561 63.5048 70.6542 63.8753 70.9451 64.1662C71.2359 64.457 71.6065 64.6551 72.0099 64.7353C72.4133 64.8156 72.8315 64.7744 73.2115 64.617C73.5915 64.4596 73.9163 64.193 74.1448 63.851C74.3733 63.509 74.4953 63.1069 74.4953 62.6956C74.4953 62.144 74.2762 61.6151 73.8862 61.2251C73.4962 60.835 72.9672 60.6159 72.4156 60.6159Z" fill="#F2CF11"/>
<path fill-rule="evenodd" clip-rule="evenodd" d="M109.687 69.3006C109.15 69.3006 108.625 69.4598 108.179 69.758C107.733 70.0562 107.385 70.4801 107.179 70.976C106.974 71.4719 106.92 72.0176 107.025 72.5441C107.13 73.0705 107.388 73.5541 107.768 73.9336C108.147 74.3132 108.631 74.5717 109.157 74.6764C109.684 74.7811 110.229 74.7274 110.725 74.522C111.221 74.3165 111.645 73.9687 111.943 73.5224C112.241 73.0761 112.401 72.5514 112.401 72.0146C112.401 71.2948 112.115 70.6045 111.606 70.0955C111.097 69.5866 110.406 69.3006 109.687 69.3006Z" fill="#F2CF11"/>
<path fill-rule="evenodd" clip-rule="evenodd" d="M120.495 74.6736C121.045 74.6748 121.582 74.5131 122.039 74.2089C122.496 73.9048 122.853 73.4718 123.063 72.9649C123.274 72.4579 123.33 71.8998 123.224 71.3611C123.118 70.8224 122.854 70.3274 122.466 69.9387C122.078 69.55 121.584 69.2851 121.045 69.1775C120.507 69.0699 119.948 69.1245 119.441 69.3344C118.934 69.5442 118.5 69.8999 118.195 70.3564C117.889 70.8128 117.727 71.3496 117.727 71.8987C117.727 72.6336 118.018 73.3385 118.537 73.8587C119.056 74.3789 119.761 74.672 120.495 74.6736Z" fill="#F2CF11"/>
<path fill-rule="evenodd" clip-rule="evenodd" d="M117.194 61.5978C117.194 61.1864 117.072 60.7844 116.844 60.4424C116.615 60.1003 116.291 59.8338 115.911 59.6764C115.531 59.519 115.112 59.4778 114.709 59.558C114.306 59.6383 113.935 59.8364 113.644 60.1272C113.353 60.4181 113.155 60.7886 113.075 61.192C112.995 61.5955 113.036 62.0136 113.193 62.3936C113.351 62.7736 113.617 63.0984 113.959 63.327C114.301 63.5555 114.703 63.6775 115.115 63.6775C115.666 63.6775 116.195 63.4583 116.585 63.0683C116.975 62.6783 117.194 62.1493 117.194 61.5978Z" fill="#F2CF11"/>
</svg>
