<svg width="15" height="14" viewBox="0 0 15 14" fill="none" xmlns="http://www.w3.org/2000/svg">
<g clip-path="url(#clip0_277_18619)">
<path d="M7.1418 13.9999C5.75633 13.9989 4.40231 13.5868 3.25109 12.816C2.09986 12.0451 1.20317 10.9501 0.674463 9.6695C0.14576 8.38888 0.00881459 6.9802 0.280954 5.62172C0.553094 4.26325 1.22209 3.01602 2.20328 2.03787C3.18448 1.05972 4.43378 0.394604 5.7931 0.126688C7.15241 -0.141228 8.56066 9.50941e-05 9.83963 0.532775C11.1186 1.06546 12.2108 1.96555 12.9781 3.11917C13.7454 4.27278 14.1532 5.62807 14.15 7.01354C14.1442 8.86844 13.4033 10.6454 12.0896 11.955C10.776 13.2646 8.99671 14 7.1418 13.9999ZM11.9426 11.4174C12.6882 10.6285 13.218 9.66073 13.4809 8.60747C13.7437 7.55421 13.7307 6.45099 13.4432 5.40422C13.1698 4.18487 12.5364 3.07578 11.6251 2.22073C10.7139 1.36568 9.56674 0.804129 8.33248 0.608877C7.33929 0.406083 6.31187 0.445466 5.33712 0.723695C4.36237 1.00192 3.46897 1.51082 2.73248 2.20732L11.9426 11.4174ZM2.37908 2.58247C1.32405 3.82676 0.773465 5.42116 0.835859 7.05133C0.898252 8.6815 1.5691 10.2291 2.71615 11.3892C3.8632 12.5492 5.40321 13.2374 7.03257 13.3181C8.66194 13.3988 10.2624 12.8662 11.5185 11.8252L9.6482 9.9549V11.9339C9.6482 12.1895 9.56665 12.271 9.31112 12.271H4.99966C4.73325 12.271 4.6517 12.1895 4.6517 11.9285C4.6517 10.6019 4.6517 9.28072 4.6517 7.95956C4.64173 7.70468 4.67107 7.44978 4.73869 7.20383C4.90723 6.70907 5.11384 6.23606 5.315 5.75761C5.34207 5.71572 5.35261 5.66526 5.34457 5.61603C5.33653 5.5668 5.31049 5.52232 5.27151 5.49121L2.49869 2.71839L2.37908 2.58247ZM5.75539 5.98053C5.63578 6.23606 5.53248 6.47528 5.42374 6.70907C5.23537 7.11047 5.13879 7.54879 5.14102 7.99218C5.14102 9.18829 5.14102 10.3862 5.14102 11.586V11.7708H9.14801V11.6077C9.14801 10.9118 9.14801 10.2104 9.14801 9.51451C9.14677 9.42527 9.1118 9.33981 9.05015 9.27528L5.88044 6.10014L5.75539 5.98053Z" fill="#51BDC6"/>
<path d="M9.18676 8.22601C9.16756 7.90533 9.13126 7.58592 9.07802 7.26911C8.99626 6.98529 8.89077 6.70885 8.76268 6.44271C8.55064 5.95339 8.32773 5.47494 8.10482 4.99106C7.96723 4.69879 7.89841 4.3789 7.90365 4.05591C7.90365 3.7895 7.90365 3.51222 7.90365 3.25125H6.40851C6.45003 3.80099 6.39107 4.3537 6.23452 4.88232L5.80501 4.68659C5.90602 4.21895 5.94079 3.73944 5.90831 3.26212C5.69084 3.21863 5.64734 3.07727 5.65278 2.88698C5.65278 2.6097 5.65278 2.34329 5.65278 2.06057C5.65278 1.77785 5.7452 1.7561 5.96268 1.7561H8.33317C8.55608 1.7561 8.64851 1.84853 8.64851 2.07144C8.64851 2.29436 8.64851 2.61513 8.64851 2.89785C8.65635 2.93822 8.65609 2.97975 8.64772 3.02002C8.63935 3.06028 8.62306 3.09848 8.59978 3.13239C8.5765 3.16629 8.54671 3.19522 8.51214 3.2175C8.47756 3.23977 8.4389 3.25494 8.39841 3.26212C8.39841 3.61008 8.39841 3.96348 8.39841 4.30601C8.41502 4.46641 8.45916 4.62274 8.52889 4.76814C8.78986 5.34989 9.07258 5.9262 9.31724 6.50251C9.56382 7.04384 9.67218 7.63792 9.63258 8.23144L9.18676 8.22601ZM8.14287 2.24542H6.15841V2.74018H8.14287V2.24542Z" fill="#51BDC6"/>
<path d="M6.13707 9.01428H5.66406V10.9879H6.13707V9.01428Z" fill="#51BDC6"/>
<path d="M6.1347 7.51379H5.65625V8.23146H6.1347V7.51379Z" fill="#51BDC6"/>
</g>
<defs>
<clipPath id="clip0_277_18619">
<rect width="14" height="14" fill="white" transform="translate(0.148438)"/>
</clipPath>
</defs>
</svg>
