<svg width="21" height="14" viewBox="0 0 21 14" fill="none" xmlns="http://www.w3.org/2000/svg">
<g clip-path="url(#clip0_277_13431)">
<path d="M20.9472 7.69329C20.8471 7.14211 20.6531 6.61221 20.3737 6.12665C19.588 4.70969 18.9997 3.19194 18.6253 1.61557V1.57361C18.6079 1.4865 18.5797 1.40192 18.5413 1.32183C18.4822 1.17511 18.3776 1.05116 18.243 0.96811C18.1083 0.885058 17.9506 0.847255 17.793 0.860227C17.2253 0.882505 16.6579 0.809214 16.1144 0.643416C15.9744 0.591053 15.8201 0.592055 15.6807 0.646232C15.5414 0.700408 15.4269 0.803968 15.3591 0.93716L15.1912 1.18195C15.1003 1.32882 15.0094 1.4687 14.9115 1.60858C14.8396 1.711 14.801 1.83311 14.801 1.95827C14.801 2.08343 14.8396 2.20555 14.9115 2.30797L15.0374 2.51079L15.2122 2.79754C15.2122 2.79754 15.2122 2.83951 15.2122 2.87448C15.1727 2.92712 15.1441 2.98708 15.128 3.05088C15.1119 3.11468 15.1086 3.18104 15.1184 3.24612C15.1281 3.31119 15.1507 3.37368 15.1848 3.42994C15.219 3.48621 15.2639 3.53513 15.3171 3.57387C15.469 3.70715 15.6641 3.78064 15.8662 3.78064C16.0682 3.78064 16.2633 3.70715 16.4152 3.57387C16.5979 3.44074 16.8127 3.35866 17.0376 3.33608C17.0676 3.66158 17.032 3.98979 16.9327 4.30124L16.7649 4.82578C16.7159 4.95167 16.6739 5.07756 16.632 5.21045C16.6043 5.28007 16.6043 5.35763 16.632 5.42726C16.6464 5.45172 16.6656 5.473 16.6884 5.48983C16.7112 5.50666 16.7373 5.51868 16.7649 5.52517C16.8278 5.52517 16.9817 5.52517 17.0516 5.32934V5.24542C17.0936 5.11953 17.1355 4.97965 17.1845 4.85376C17.4134 4.32826 17.4862 3.74798 17.3943 3.18221C17.4857 3.11717 17.5601 3.03111 17.6112 2.9313C17.6623 2.83149 17.6887 2.72085 17.6881 2.60871C17.6962 2.57613 17.6966 2.54212 17.6893 2.50935C17.682 2.47658 17.6672 2.44595 17.6461 2.41987C17.608 2.37744 17.5558 2.35013 17.4992 2.34294C17.3663 2.34294 17.2754 2.41288 17.2475 2.55975C17.2195 2.70662 17.1845 2.83251 16.9397 2.86049C16.633 2.87645 16.3392 2.98907 16.1004 3.18221C16.058 3.21087 16.0136 3.23657 15.9676 3.25914C15.9094 3.29735 15.8413 3.31771 15.7717 3.31771C15.7021 3.31771 15.6341 3.29735 15.5759 3.25914C15.5339 3.18221 15.5339 3.14724 15.5339 3.14025C15.5339 3.13325 15.5339 3.09129 15.5899 3.05632C15.6995 2.96523 15.8165 2.88336 15.9396 2.81153L16.0235 2.79754L16.1704 2.72061C16.2385 2.69114 16.304 2.65605 16.3662 2.6157C16.5207 2.51425 16.6287 2.3558 16.6667 2.17496C16.7047 1.99411 16.6696 1.80558 16.569 1.65054C16.5625 1.61499 16.5472 1.58164 16.5246 1.5535C16.5019 1.52537 16.4725 1.50336 16.4392 1.48946C16.4058 1.47556 16.3695 1.47022 16.3336 1.47392C16.2976 1.47762 16.2632 1.49025 16.2333 1.51066C16.2057 1.52436 16.1813 1.54378 16.1618 1.56764C16.1423 1.59151 16.1281 1.61925 16.1202 1.64904C16.1122 1.67882 16.1107 1.70996 16.1158 1.74037C16.1208 1.77078 16.1323 1.79976 16.1494 1.82539C16.2543 2.04919 16.2123 2.16809 15.9955 2.27999L15.6179 2.46184L15.5339 2.5038L15.478 2.41987C15.3921 2.29107 15.3127 2.15801 15.2402 2.02122C15.2296 1.99572 15.2242 1.96839 15.2242 1.94079C15.2242 1.91319 15.2296 1.88585 15.2402 1.86036C15.3871 1.61557 15.5549 1.37078 15.7158 1.16097V1.119C15.7309 1.08945 15.7564 1.06661 15.7875 1.05496C15.8186 1.04331 15.8528 1.04371 15.8836 1.05606C16.0284 1.09919 16.1755 1.13422 16.3243 1.16097C16.7697 1.27318 17.2294 1.31797 17.6881 1.29385C17.9329 1.29385 18.0657 1.37778 18.1357 1.65753C18.3638 2.51919 18.6417 3.36688 18.968 4.19633C19.2131 4.79854 19.4909 5.38691 19.8002 5.9588C19.8842 6.11266 19.9611 6.26653 20.038 6.42739C20.2306 6.77921 20.3741 7.1557 20.4647 7.54642C20.5699 7.90286 20.589 8.27917 20.5206 8.64446C20.4735 8.81464 20.4127 8.98071 20.3388 9.14103V9.21797C20.2268 9.46286 20.188 9.73485 20.2269 10.0013C20.2374 10.0919 20.2374 10.1834 20.2269 10.274C20.226 10.3843 20.1851 10.4905 20.1118 10.5729C20.0384 10.6552 19.9376 10.7081 19.8282 10.7217C19.7193 10.7393 19.6084 10.7393 19.4995 10.7217C19.1698 10.6532 18.8266 10.7001 18.5273 10.8545C18.4645 10.888 18.399 10.916 18.3315 10.9385H18.2546C16.8495 11.5041 15.3226 11.6991 13.8204 11.505C13.0146 11.3912 12.2449 11.0971 11.5684 10.6447L11.3376 10.4909L11.2187 10.3999C11.199 10.3776 11.1748 10.3597 11.1477 10.3475C11.1205 10.3352 11.0911 10.3289 11.0613 10.3289C11.0316 10.3289 11.0021 10.3352 10.975 10.3475C10.9479 10.3597 10.9237 10.3776 10.904 10.3999C10.8816 10.4196 10.8638 10.4438 10.8515 10.471C10.8393 10.4981 10.8329 10.5275 10.8329 10.5573C10.8329 10.5871 10.8393 10.6165 10.8515 10.6436C10.8638 10.6708 10.8816 10.695 10.904 10.7147C10.9285 10.7438 10.9567 10.7697 10.9879 10.7916L11.5824 11.2112C11.0755 11.3957 10.5253 11.4249 10.0017 11.2952C9.95279 11.2952 9.95279 11.2952 9.95279 11.2182V5.59511C10.3289 5.8186 10.6138 6.16792 10.7571 6.58126C10.7887 6.66224 10.8482 6.72923 10.9249 6.77009C10.9532 6.78424 10.9843 6.79161 11.0159 6.79161C11.0474 6.79161 11.0786 6.78424 11.1068 6.77009C11.1569 6.73041 11.1896 6.67267 11.1977 6.60923C11.739 6.6856 12.2584 6.87362 12.7232 7.16137C13.1879 7.44912 13.5877 7.83032 13.8974 8.28078C13.9112 8.30919 13.9308 8.33435 13.955 8.35462C13.9792 8.3749 14.0074 8.38982 14.0378 8.3984C14.0682 8.40699 14.1001 8.40905 14.1313 8.40445C14.1626 8.39985 14.1925 8.38869 14.2191 8.3717C14.2654 8.33928 14.2997 8.29261 14.317 8.23882C14.3282 8.16739 14.3106 8.09444 14.268 8.03599C14.1841 7.9171 14.0932 7.78421 13.9883 7.65832L13.7715 7.41353L13.9393 7.34359C14.3415 7.18151 14.7729 7.10465 15.2063 7.1179C15.6397 7.13114 16.0656 7.23419 16.4571 7.42053C16.4834 7.43056 16.5064 7.4476 16.5237 7.4698C16.5409 7.49199 16.5518 7.51849 16.5551 7.54642C16.586 7.80624 16.6958 8.05033 16.8698 8.24581C16.887 8.27119 16.9094 8.29263 16.9355 8.30872C16.9616 8.32481 16.9908 8.33518 17.0212 8.33915C17.0516 8.34311 17.0825 8.34058 17.1119 8.33173C17.1412 8.32287 17.1684 8.30789 17.1915 8.28777C17.2405 8.28777 17.3314 8.14789 17.1915 7.94507C17.1235 7.84953 17.0672 7.74622 17.0236 7.63734C16.9087 7.24009 16.8778 6.82327 16.9327 6.4134V6.37144C16.9344 6.34582 16.9344 6.32012 16.9327 6.29451C16.9337 6.26637 16.9289 6.23833 16.9188 6.21206C16.9087 6.18579 16.8934 6.16183 16.8738 6.1416C16.8542 6.12137 16.8308 6.10529 16.8048 6.09431C16.7789 6.08333 16.7511 6.07768 16.7229 6.07769C16.6963 6.07579 16.6695 6.07917 16.6442 6.08765C16.6188 6.09612 16.5954 6.10951 16.5753 6.12706C16.5551 6.1446 16.5386 6.16596 16.5268 6.18989C16.5149 6.21383 16.5079 6.23987 16.5061 6.26653C16.5061 6.35745 16.5061 6.44837 16.5061 6.53929V6.90298C16.0193 6.69086 15.4916 6.58902 14.9608 6.60473C14.4299 6.62045 13.9092 6.75335 13.4358 6.9939C13.4204 7.00766 13.4005 7.01527 13.3798 7.01527C13.3592 7.01527 13.3392 7.00766 13.3239 6.9939C12.6695 6.51933 11.9078 6.21417 11.1068 6.10567C11.0842 6.10291 11.0626 6.09439 11.0443 6.08092C11.0259 6.06745 11.0113 6.04948 11.0019 6.02874C10.7491 5.59147 10.3614 5.24792 9.89684 5.04959C9.85537 5.02565 9.80834 5.01304 9.76046 5.01304C9.71258 5.01304 9.66554 5.02565 9.62407 5.04959C9.58483 5.07591 9.55403 5.11303 9.53542 5.15646C9.5168 5.1999 9.51116 5.2478 9.51917 5.29437C9.51917 5.59511 9.51917 5.89585 9.51917 6.1896V11.435C9.51121 11.4947 9.52431 11.5553 9.55623 11.6064C9.58815 11.6575 9.63687 11.6958 9.69401 11.7148C10.417 11.9641 11.208 11.9265 11.9041 11.6099C11.966 11.5791 12.0343 11.5631 12.1034 11.5631C12.1726 11.5631 12.2408 11.5791 12.3027 11.6099C13.1178 11.9405 13.99 12.1069 14.8695 12.0995C15.4552 12.0824 16.0381 12.0122 16.611 11.8896C17.4005 11.729 18.1732 11.4949 18.919 11.1903C19.0069 11.175 19.0968 11.175 19.1848 11.1903H19.3946H19.7303C19.9374 11.1953 20.1398 11.1283 20.3031 11.0007C20.4663 10.8732 20.5803 10.693 20.6255 10.4909C20.6649 10.3285 20.6768 10.1606 20.6605 9.99429C20.6301 9.7372 20.6764 9.47687 20.7934 9.24594C21.0121 8.75889 21.0662 8.2138 20.9472 7.69329Z" fill="#819950"/>
<path d="M16.7719 10.0503C16.3034 10.3347 15.7678 10.4897 15.2198 10.4995C14.6718 10.5093 14.131 10.3736 13.6526 10.1062C13.6278 10.0888 13.5998 10.0764 13.5702 10.0697C13.5406 10.0631 13.51 10.0623 13.4802 10.0675C13.4503 10.0727 13.4217 10.0838 13.3961 10.1C13.3705 10.1163 13.3483 10.1374 13.3309 10.1622C13.2992 10.2094 13.2867 10.2669 13.2959 10.323C13.306 10.3593 13.3237 10.3931 13.3478 10.422C13.3719 10.451 13.4019 10.4744 13.4358 10.4909L13.5337 10.5469C14.0559 10.8187 14.6377 10.9557 15.2262 10.9455C15.8463 10.934 16.4522 10.7578 16.9817 10.435C17.1006 10.365 17.1566 10.3091 17.1775 10.2391C17.1837 10.2114 17.1838 10.1826 17.1778 10.1548C17.1717 10.1271 17.1597 10.1009 17.1426 10.0783C17.0447 9.88943 16.8558 10.0013 16.7719 10.0503Z" fill="#819950"/>
<path d="M12.3354 7.39249C11.8509 6.97528 11.2334 6.74464 10.594 6.74205C10.5087 6.73488 10.4239 6.75983 10.3562 6.81199C10.335 6.83145 10.3184 6.85532 10.3075 6.88191C10.2967 6.9085 10.2918 6.93716 10.2932 6.96586C10.2932 7.10574 10.3841 7.18267 10.566 7.19666H10.6359C10.7649 7.20608 10.8933 7.22243 11.0206 7.24561C11.2948 7.27855 11.558 7.37303 11.7905 7.522C12.023 7.67096 12.2189 7.87056 12.3634 8.10587C12.3788 8.13645 12.4005 8.16345 12.427 8.18514C12.4535 8.20682 12.4843 8.2227 12.5173 8.23176H12.5662C12.6028 8.24225 12.6416 8.24225 12.6781 8.23176C12.7072 8.21741 12.7326 8.19651 12.7522 8.17071C12.7719 8.14491 12.7853 8.11491 12.7914 8.08306C12.7975 8.05121 12.7961 8.01838 12.7874 7.98714C12.7787 7.95591 12.7628 7.92712 12.7411 7.90304L12.6711 7.80513C12.5726 7.65723 12.4602 7.51906 12.3354 7.39249Z" fill="#819950"/>
<path d="M17.6723 5.59507C17.614 5.58673 17.5546 5.5991 17.5044 5.63004C17.4785 5.65021 17.457 5.67555 17.4414 5.70444C17.4258 5.73333 17.4163 5.76515 17.4135 5.79789C17.4135 5.91679 17.3786 6.02869 17.3716 6.11961V6.21752C17.3658 6.48305 17.4134 6.74703 17.5114 6.99385C17.5245 7.04023 17.5518 7.08136 17.5894 7.11146C17.627 7.14156 17.6731 7.15913 17.7213 7.1617H17.8122C17.8385 7.15194 17.8625 7.13701 17.883 7.11779C17.9034 7.09857 17.9197 7.07545 17.9311 7.0498C17.9587 6.98017 17.9587 6.90262 17.9311 6.83299C17.9041 6.78193 17.8829 6.72796 17.8681 6.67213C17.8123 6.40458 17.8123 6.12839 17.8681 5.86083C17.8766 5.83019 17.878 5.79802 17.8723 5.76675C17.8665 5.73547 17.8537 5.70592 17.8348 5.68032C17.816 5.65472 17.7916 5.63375 17.7634 5.61898C17.7352 5.60421 17.7041 5.59603 17.6723 5.59507Z" fill="#819950"/>
<path d="M19.8063 8.87522C19.8192 8.89946 19.8371 8.9207 19.8588 8.93757C19.8805 8.95444 19.9055 8.96656 19.9321 8.97313H20.0091C20.0433 8.98304 20.0797 8.98304 20.114 8.97313C20.1695 8.93791 20.2095 8.8829 20.2259 8.81927C20.2259 8.69338 20.2818 8.57448 20.3168 8.44859L20.3588 8.25975L20.3168 8.09889C20.2818 7.98699 20.2469 7.8611 20.2049 7.7422C20.1806 7.68977 20.1384 7.64766 20.086 7.6233C20.0582 7.608 20.0269 7.59998 19.9951 7.59998C19.9633 7.59998 19.932 7.608 19.9042 7.6233C19.8781 7.63383 19.8546 7.64965 19.8349 7.66976C19.8153 7.68987 19.8001 7.71384 19.7903 7.74014C19.7804 7.76644 19.7761 7.7945 19.7777 7.82254C19.7792 7.85059 19.7866 7.87801 19.7993 7.90306C19.8549 8.02243 19.8837 8.15253 19.8837 8.28423C19.8837 8.41593 19.8549 8.54603 19.7993 8.6654C19.7865 8.6991 19.7806 8.735 19.7818 8.77101C19.783 8.80702 19.7913 8.84244 19.8063 8.87522Z" fill="#819950"/>
<path d="M2.04921 13.1486C1.93032 13.0856 1.90234 12.9737 1.86038 12.8548C1.7765 12.5744 1.67129 12.3009 1.54565 12.0365C1.27988 11.4491 0.965155 10.8756 0.734356 10.2741C0.320143 9.23126 0.120336 8.11567 0.146866 6.99392C0.145562 6.52723 0.248299 6.0661 0.447605 5.6441C0.821324 4.84545 1.05777 3.98953 1.147 3.1123C1.26845 2.27807 1.14957 1.42651 0.804295 0.657431C0.765308 0.577561 0.72091 0.500449 0.67141 0.426632C0.648585 0.397863 0.632329 0.36445 0.623782 0.328734C0.615236 0.293019 0.614606 0.255866 0.621936 0.219882C0.629266 0.183897 0.644379 0.149952 0.666216 0.120425C0.688052 0.0908993 0.716083 0.0665073 0.748343 0.0489598C0.776822 0.027748 0.809575 0.0129862 0.844329 0.00569861C0.879084 -0.00158897 0.915008 -0.00122783 0.949608 0.00675699C0.984209 0.0147418 1.01666 0.0301591 1.04471 0.0519392C1.07275 0.0737193 1.09572 0.101341 1.11203 0.132887C1.34171 0.487551 1.50521 0.880904 1.59461 1.29388C1.80205 2.2166 1.78766 3.17536 1.55264 4.09145C1.40466 4.70325 1.20098 5.30022 0.944173 5.8749C1.37145 6.07934 1.82613 6.22069 2.294 6.29453C3.57979 6.47721 4.89074 6.34275 6.11268 5.90287L6.65121 5.71404C6.53931 5.5252 6.42741 5.35035 6.3225 5.16851C6.21759 4.98667 6.0917 4.78385 5.98679 4.58102C5.96223 4.55036 5.94541 4.51423 5.93775 4.47569C5.9301 4.43716 5.93183 4.39734 5.9428 4.35962C5.95378 4.32189 5.97367 4.28736 6.00081 4.25894C6.02794 4.23053 6.06151 4.20906 6.09869 4.19636C6.24557 4.12642 6.37146 4.19636 6.46238 4.34323C6.71416 4.79084 6.98692 5.21747 7.21772 5.66508C7.58672 6.31588 7.76375 7.05793 7.72828 7.80522C7.69348 8.44205 7.56868 9.07075 7.3576 9.6726C7.0149 10.6587 6.65821 11.6309 6.27354 12.61C6.23158 12.715 6.2036 12.8269 6.15465 12.9248C6.10569 13.0227 6.03575 13.0926 5.9798 13.1766H5.79796C5.59513 13.0437 5.57415 12.9667 5.65808 12.7359C5.80495 12.3513 5.95182 11.9736 6.10569 11.5889C6.49882 10.6648 6.8169 9.71057 7.05686 8.73541C7.21073 8.16786 7.23937 7.57364 7.14079 6.99392C7.08484 6.72116 6.98692 6.45539 6.90999 6.17564C6.7771 6.25956 6.67919 6.31551 6.58127 6.38545C5.59215 7.10544 4.69285 7.94134 3.9026 8.87529C3.87281 8.90512 3.85533 8.94507 3.85365 8.98719C3.81168 9.68659 3.7907 10.386 3.74174 11.1273C3.69978 11.6938 3.63683 12.2603 3.58088 12.8339C3.57794 12.8953 3.56058 12.9551 3.5302 13.0086C3.49983 13.0621 3.45729 13.1076 3.40603 13.1416H3.23119C3.1664 13.1178 3.11234 13.0715 3.07894 13.0111C3.04554 12.9508 3.03503 12.8804 3.04934 12.8129C3.09131 12.5471 3.13327 12.2813 3.15425 12.0086C3.2172 11.0224 3.26616 10.0363 3.3291 9.05713C3.33274 9.00194 3.32465 8.94661 3.30536 8.89478C3.28607 8.84294 3.25603 8.79578 3.2172 8.75639C2.68612 8.15661 2.10595 7.60217 1.48271 7.09883C1.23792 6.903 0.986137 6.72116 0.720368 6.51834C0.720368 6.62325 0.720368 6.70018 0.720368 6.78411C0.71689 6.82133 0.71689 6.85879 0.720368 6.89601C0.700455 7.69144 0.797062 8.48551 1.00712 9.25296C1.23214 10.0405 1.54412 10.8005 1.93731 11.519C2.15647 11.9048 2.32122 12.319 2.42688 12.7499C2.44352 12.7878 2.45197 12.8288 2.45167 12.8701C2.45138 12.9115 2.44236 12.9523 2.42519 12.99C2.40802 13.0276 2.3831 13.0612 2.35206 13.0885C2.32101 13.1158 2.28455 13.1363 2.24504 13.1486H2.04921ZM3.57389 8.33676L5.24544 6.6792C4.14538 6.93912 3.00157 6.95345 1.89535 6.72116L3.57389 8.33676Z" fill="#819950"/>
<path d="M5.60167 2.34299C5.65118 1.60829 5.8164 0.886013 6.09124 0.202854C6.10071 0.167418 6.11802 0.134563 6.14189 0.106716C6.16576 0.0788687 6.19558 0.0567417 6.22915 0.04197C6.26272 0.0271984 6.29919 0.0201599 6.33584 0.0213745C6.3725 0.0225892 6.40842 0.032026 6.44094 0.0489876C6.47614 0.0598086 6.50844 0.0784318 6.53544 0.10347C6.56245 0.128508 6.58345 0.159316 6.5969 0.193599C6.61034 0.227882 6.61588 0.264757 6.61309 0.301476C6.61031 0.338196 6.59928 0.373814 6.58082 0.405678C6.33409 1.0274 6.18316 1.68297 6.13321 2.34999C6.13342 2.38646 6.12592 2.42256 6.1112 2.45593C6.09649 2.4893 6.07488 2.51918 6.0478 2.54362C6.02073 2.56805 5.98879 2.58649 5.95409 2.59771C5.91939 2.60894 5.88271 2.61271 5.84645 2.60876C5.77905 2.60514 5.71573 2.57533 5.67 2.52567C5.62427 2.47602 5.59975 2.41047 5.60167 2.34299Z" fill="#819950"/>
<path d="M3.42578 4.89574C3.4276 4.82647 3.45641 4.76065 3.50605 4.71232C3.5557 4.66398 3.62226 4.63694 3.69155 4.63696C3.75962 4.63873 3.82442 4.66656 3.87257 4.71472C3.92072 4.76287 3.94856 4.82766 3.95033 4.89574C3.95129 4.92998 3.94526 4.96407 3.93259 4.9959C3.91993 5.02773 3.90091 5.05664 3.87668 5.08087C3.85246 5.10509 3.82354 5.12412 3.79171 5.13678C3.75988 5.14944 3.7258 5.15548 3.69155 5.15451C3.65698 5.15545 3.62258 5.14944 3.59037 5.13686C3.55816 5.12427 3.52881 5.10536 3.50403 5.08124C3.47926 5.05711 3.45957 5.02827 3.44613 4.99641C3.43269 4.96455 3.42577 4.93032 3.42578 4.89574Z" fill="#819950"/>
<path d="M8.15616 3.54587C8.15616 3.41299 8.10021 3.36403 7.97432 3.36403H6.73639C6.73639 3.36403 6.73639 3.36403 6.73639 3.32207C6.73639 3.20317 6.73639 3.08427 6.73639 2.95838C6.73639 2.83249 6.73639 2.72059 6.54756 2.68562H6.25381L1.5469 2.67163H1.29512H1.23218C1.20314 2.68049 1.1769 2.69675 1.15605 2.71882C1.1352 2.7409 1.12046 2.76802 1.11328 2.79752C1.11328 3.22415 1.11328 3.65078 1.11328 4.07741C1.11328 4.16833 1.16224 4.22428 1.24617 4.21729H1.3231H5.3446C5.36991 4.21222 5.39246 4.19801 5.40794 4.17737C5.42342 4.15672 5.43075 4.13109 5.42853 4.10539C5.42853 3.96551 5.30264 3.99348 5.21172 3.99348L1.5469 4.01446H1.33009V2.90942H1.5469V3.29409C1.5469 3.37802 1.5469 3.44796 1.65881 3.44796C1.77071 3.44796 1.77071 3.37102 1.76372 3.2871C1.75672 3.20317 1.76372 3.04231 1.76372 2.90942H2.03648C2.02947 2.97919 2.02947 3.04948 2.03648 3.11924C2.03648 3.1682 2.11341 3.20317 2.14838 3.24513C2.18335 3.2871 2.2463 3.17519 2.2463 3.13323C2.25331 3.06113 2.25331 2.98852 2.2463 2.91642H2.52605C2.519 3.04454 2.519 3.17296 2.52605 3.30108C2.53196 3.33166 2.54439 3.36061 2.5625 3.38596C2.5806 3.4113 2.60395 3.43245 2.63096 3.44796C2.72188 3.44796 2.74287 3.38501 2.74287 3.30108V2.91642H3.02262C3.01564 2.97917 3.01564 3.0425 3.02262 3.10525C3.02262 3.16121 3.08557 3.24513 3.12753 3.25213C3.16949 3.25912 3.24643 3.18219 3.23943 3.10525V2.91642H3.51919C3.51919 3.04231 3.51919 3.1682 3.51919 3.29409C3.51919 3.41998 3.51919 3.45495 3.63109 3.45495C3.743 3.45495 3.743 3.37802 3.743 3.30108V2.91642H4.02275C4.02611 2.97232 4.02611 3.02837 4.02275 3.08427C4.02275 3.1682 4.02275 3.25213 4.14165 3.25213C4.26055 3.25213 4.25355 3.1682 4.24656 3.09127V2.92341H4.52632C4.52632 3.03531 4.52632 3.16121 4.52632 3.2801C4.52632 3.399 4.52632 3.45495 4.63822 3.45495C4.75012 3.45495 4.75012 3.36403 4.75012 3.2801V2.92341H5.04387C5.03332 2.99295 5.03332 3.06369 5.04387 3.13323C5.04387 3.18219 5.1138 3.21716 5.15577 3.26611C5.19645 3.22406 5.2317 3.17707 5.26068 3.12624C5.2677 3.05881 5.2677 2.99084 5.26068 2.92341H5.53344V3.2871C5.53344 3.36403 5.53344 3.45495 5.64534 3.46194C5.75725 3.46894 5.74326 3.36403 5.74326 3.2801V2.93041H6.01602V3.11225C6.01602 3.18918 6.01602 3.26611 6.13492 3.26611C6.25381 3.26611 6.24682 3.19618 6.23983 3.11924C6.23647 3.05634 6.23647 2.99331 6.23983 2.93041H6.47762V4.02845H5.74326C5.66632 4.02845 5.58939 4.02845 5.61037 4.14035C5.62143 4.16861 5.63938 4.19366 5.66259 4.2132C5.6858 4.23275 5.71353 4.24617 5.74326 4.25226H6.19087L6.06498 4.60195L6.14191 4.75582C6.14191 4.70686 6.48461 5.07055 6.51259 5.02159C6.54057 4.97263 6.19786 4.8957 6.28878 4.8957H7.14204C7.14204 4.8957 7.19799 4.8957 7.21898 4.8957C7.23996 4.8957 7.34487 4.83275 7.35885 4.7838C7.37284 4.73484 7.3029 4.67189 7.22597 4.67189H6.2678C6.30277 4.553 6.33774 4.46208 6.36572 4.36416C6.39369 4.26625 6.42866 4.21029 6.54057 4.22428C6.65247 4.23827 6.71541 4.17532 6.71541 4.05643C6.71541 3.93753 6.71541 3.73471 6.71541 3.57385H6.94621C6.94621 3.68575 6.94621 3.79066 6.94621 3.90256C6.94621 4.01446 6.90425 4.11937 7.05112 4.12637C7.19799 4.13336 7.15603 3.98649 7.16302 3.89557C7.17002 3.80465 7.16302 3.68575 7.16302 3.57385H7.43579C7.42879 3.65296 7.42879 3.73253 7.43579 3.81164C7.43579 3.8606 7.51272 3.89557 7.55468 3.93753C7.59372 3.90096 7.62676 3.85847 7.6526 3.81164C7.6526 3.73471 7.6526 3.65777 7.6526 3.57385H7.91137V4.70686H7.58965C7.51272 4.70686 7.43579 4.70686 7.45677 4.81177C7.46844 4.84091 7.48746 4.86653 7.51197 4.88614C7.53649 4.90575 7.56566 4.91868 7.59665 4.92367C7.71554 4.92367 7.84143 4.92367 7.96733 4.92367C8.09322 4.92367 8.14217 4.87472 8.14217 4.74883C8.14917 4.35017 8.14917 3.95152 8.15616 3.54587Z" fill="#819950"/>
</g>
<defs>
<clipPath id="clip0_277_13431">
<rect width="20.8559" height="13.1626" fill="white" transform="translate(0.148438)"/>
</clipPath>
</defs>
</svg>
