<svg width="15" height="14" viewBox="0 0 15 14" fill="none" xmlns="http://www.w3.org/2000/svg">
<g clip-path="url(#clip0_277_6133)">
<path d="M7.15278 13.9932H3.50961C3.25431 13.9932 3.18531 13.9242 3.18531 13.6758C3.18531 13.2135 3.18531 12.7512 3.18531 12.2958C3.19534 11.6423 3.13286 10.9897 2.99901 10.35C2.81271 9.28048 2.63331 8.21099 2.45392 7.1415C2.45605 7.07076 2.43396 7.00141 2.3913 6.94494C2.34863 6.88847 2.28795 6.84827 2.21932 6.831C1.56534 6.61412 1.00511 6.18029 0.631456 5.60141C0.257804 5.02253 0.0931689 4.33336 0.164835 3.6481C0.236502 2.96284 0.540167 2.32263 1.02551 1.83359C1.51084 1.34455 2.14872 1.03602 2.83341 0.959143C3.32718 0.906193 3.82644 0.972445 4.2893 1.15234C4.3201 1.16918 4.35597 1.17426 4.39023 1.16664C4.42449 1.15903 4.45483 1.13924 4.4756 1.11094C4.82128 0.757731 5.23402 0.477101 5.68959 0.285514C6.14517 0.093927 6.63441 -0.00476074 7.12863 -0.00476074C7.62285 -0.00476074 8.1121 0.093927 8.56767 0.285514C9.02325 0.477101 9.43598 0.757731 9.78166 1.11094C9.80995 1.13391 9.84527 1.14645 9.88171 1.14645C9.91815 1.14645 9.95348 1.13391 9.98176 1.11094C10.7385 0.836445 11.5732 0.873788 12.3024 1.21475C13.0315 1.55572 13.5954 2.17238 13.8699 2.92908C14.1444 3.68578 14.107 4.52052 13.7661 5.24969C13.4251 5.97885 12.8084 6.5427 12.0517 6.8172C11.9992 6.82656 11.9515 6.85354 11.9164 6.89367C11.8813 6.93381 11.8609 6.98472 11.8585 7.038L11.2997 10.3638C11.2445 10.6812 11.1893 10.9917 11.141 11.3091C11.1341 11.3825 11.1341 11.4564 11.141 11.5299V13.6551C11.141 13.8828 11.0651 13.9587 10.8374 13.9587H7.18038M4.8413 1.42144L4.9793 1.51114C5.35763 1.78784 5.66625 2.14893 5.88065 2.56575C6.09504 2.98257 6.20932 3.44363 6.21439 3.91232C6.21439 4.09172 6.13159 4.20212 5.97979 4.20212C5.82799 4.20212 5.75899 4.09862 5.74519 3.91232C5.75201 3.78131 5.75201 3.65004 5.74519 3.51903C5.66377 3.0639 5.46092 2.63922 5.15809 2.28986C4.85526 1.94049 4.46369 1.6794 4.02474 1.53418C3.58579 1.38896 3.11576 1.365 2.66432 1.46483C2.21288 1.56466 1.79678 1.78457 1.45999 2.10133C1.1232 2.41809 0.878219 2.81994 0.750934 3.26442C0.623648 3.7089 0.618782 4.17951 0.73685 4.62653C0.854917 5.07355 1.09153 5.48038 1.4217 5.80404C1.75187 6.12769 2.16333 6.35616 2.61261 6.4653C2.6755 6.4738 2.73387 6.5027 2.77874 6.54758C2.82361 6.59245 2.85252 6.65081 2.86101 6.7137C3.07491 7.99709 3.28881 9.28738 3.50961 10.5708L3.61311 11.1849H5.0276C4.9793 10.4949 4.9379 9.86008 4.8896 9.20458C4.8896 8.86649 4.8344 8.51459 4.8206 8.18339C4.81666 8.15217 4.81945 8.12046 4.82877 8.0904C4.83809 8.06034 4.85373 8.03262 4.87464 8.00909C4.89555 7.98557 4.92124 7.96679 4.95 7.95401C4.97876 7.94123 5.00993 7.93475 5.0414 7.93499C5.07221 7.93407 5.1029 7.93923 5.13171 7.95018C5.16053 7.96113 5.1869 7.97765 5.20933 7.9988C5.23176 8.01994 5.2498 8.0453 5.26242 8.07342C5.27505 8.10155 5.282 8.13188 5.2829 8.16269C5.2829 8.27999 5.2829 8.40419 5.2829 8.52149C5.33809 9.26668 5.38639 10.0188 5.44159 10.764C5.44159 10.902 5.44159 11.0469 5.44159 11.1849H6.91818V9.92218C6.91818 9.49438 6.91818 9.07349 6.91818 8.65259C6.91536 8.62122 6.91888 8.58959 6.92853 8.55961C6.93819 8.52963 6.95379 8.5019 6.97439 8.47807C6.995 8.45425 7.02019 8.43482 7.04847 8.42094C7.07675 8.40706 7.10753 8.39902 7.13898 8.39729C7.17189 8.39724 7.20446 8.40391 7.2347 8.4169C7.26494 8.42989 7.2922 8.44892 7.31482 8.47283C7.33743 8.49674 7.35492 8.52502 7.36621 8.55593C7.37751 8.58684 7.38236 8.61973 7.38048 8.65259V11.1849H8.76047C8.75664 11.1551 8.75664 11.1249 8.76047 11.0952L8.96747 8.20409C8.96747 8.03159 9.06407 7.92809 9.20207 7.93499C9.34007 7.94189 9.44357 8.05229 9.42977 8.23169C9.38147 8.96309 9.32627 9.70138 9.27107 10.4397C9.27107 10.6881 9.27107 10.9365 9.22277 11.1918H10.6028C10.6028 11.0952 10.6373 11.0055 10.658 10.9158C10.8857 9.53578 11.1203 8.15579 11.348 6.7758C11.3563 6.6832 11.3955 6.59609 11.4593 6.5285C11.5231 6.46092 11.6079 6.41678 11.6998 6.4032C12.2804 6.25095 12.7889 5.89957 13.1367 5.41045C13.4845 4.92133 13.6493 4.32557 13.6025 3.72726C13.5556 3.12894 13.3001 2.5661 12.8804 2.13707C12.4607 1.70804 11.9037 1.44009 11.3066 1.38004C10.9307 1.34852 10.5526 1.40522 10.2026 1.54564L10.2716 1.66984C10.491 2.00273 10.6499 2.37181 10.7408 2.76003C10.7503 2.78857 10.7541 2.81871 10.7519 2.84872C10.7498 2.87873 10.7418 2.90803 10.7283 2.93494C10.7149 2.96185 10.6962 2.98585 10.6735 3.00556C10.6508 3.02527 10.6244 3.04031 10.5959 3.04983C10.5673 3.05934 10.5372 3.06314 10.5072 3.06101C10.4772 3.05888 10.4479 3.05085 10.4209 3.0374C10.394 3.02394 10.37 3.00532 10.3503 2.98259C10.3306 2.95986 10.3156 2.93347 10.3061 2.90493L10.2716 2.82213C10.1014 2.19297 9.74087 1.63182 9.23936 1.21555C8.73786 0.799271 8.11991 0.548241 7.47018 0.496847C6.99044 0.439244 6.50388 0.492662 6.04806 0.652975C5.59224 0.813289 5.17936 1.07621 4.8413 1.42144ZM3.65451 13.5171H10.6373V11.6679H3.65451V13.5171Z" fill="#00886D"/>
</g>
<defs>
<clipPath id="clip0_277_6133">
<rect width="14" height="13.9931" fill="white" transform="translate(0.148438)"/>
</clipPath>
</defs>
</svg>
