<svg width="14" height="14" viewBox="0 0 14 14" fill="none" xmlns="http://www.w3.org/2000/svg">
<path d="M2.0953e-06 6.99167C0.00107325 5.60666 0.412663 4.25307 1.18272 3.10207C1.95278 1.95108 3.04673 1.05437 4.32622 0.525337C5.60571 -0.00369261 7.01328 -0.141281 8.37094 0.129972C9.7286 0.401224 10.9754 1.06913 11.9536 2.04924C12.9318 3.02935 13.5975 4.27763 13.8665 5.63623C14.1356 6.99484 13.9959 8.40274 13.4651 9.68192C12.9343 10.9611 12.0362 12.0541 10.8845 12.8226C9.73275 13.5912 8.37906 14.0009 6.99459 13.9998C6.07533 13.9991 5.16522 13.8173 4.31622 13.4647C3.46721 13.1121 2.69593 12.5957 2.04643 11.9449C1.39692 11.2942 0.881899 10.5218 0.530773 9.67191C0.179647 8.82203 -0.000709125 7.91128 2.0953e-06 6.99167ZM2.23047 11.476C2.26068 11.4396 2.29323 11.4052 2.32792 11.3731C2.8693 10.8315 3.41067 10.2899 3.95205 9.77543C3.98227 9.74047 4.01684 9.70953 4.05491 9.68336C4.09687 9.65223 4.14888 9.63778 4.20087 9.64278C4.25287 9.64778 4.30116 9.67189 4.33643 9.71044C4.37221 9.74859 4.39212 9.79894 4.39212 9.85125C4.39212 9.90356 4.37221 9.95391 4.33643 9.99206C4.30815 10.035 4.27346 10.0734 4.23357 10.1058C3.69219 10.6474 3.1075 11.2377 2.53906 11.801C3.78731 12.9056 5.41028 13.4914 7.07599 13.4384C8.7417 13.3855 10.3242 12.6979 11.4999 11.5162C12.6756 10.3346 13.3555 8.7482 13.4006 7.08161C13.4457 5.41503 12.8525 3.79418 11.7425 2.55065C11.71 2.58856 11.6829 2.6373 11.6504 2.6698L10.0534 4.29456C10.0255 4.32625 9.99464 4.35527 9.96133 4.38122C9.9178 4.41231 9.86471 4.42706 9.81139 4.42287C9.75807 4.41868 9.70793 4.39583 9.66979 4.35832C9.63165 4.32081 9.60794 4.27104 9.60285 4.21778C9.59775 4.16452 9.61158 4.11116 9.64192 4.06709C9.67082 4.01309 9.70529 3.96227 9.74478 3.91545L11.4555 2.22028C10.2083 1.10557 8.58138 0.511684 6.90965 0.560919C5.23793 0.610153 3.64871 1.29876 2.46923 2.48494C1.28976 3.67112 0.609822 5.26458 0.569434 6.93719C0.529046 8.6098 1.13128 10.2342 2.25213 11.476" fill="#51BDC6"/>
<path d="M7.22244 2.08513C7.20585 2.18644 7.21233 2.29019 7.24139 2.38865C7.27046 2.48711 7.32137 2.57774 7.39033 2.6538C7.58597 2.91329 7.7311 3.20724 7.81818 3.52034C7.87293 3.71763 7.85167 3.92829 7.75861 4.11067C7.57989 4.45187 7.3795 4.77682 7.1737 5.10177C7.15485 5.1297 7.12944 5.15257 7.0997 5.16838C7.06995 5.18419 7.03678 5.19246 7.0031 5.19246C6.96941 5.19246 6.93624 5.18419 6.90649 5.16838C6.87675 5.15257 6.85134 5.1297 6.8325 5.10177C6.53367 4.75765 6.30877 4.35578 6.17176 3.92111C6.12121 3.7088 6.15011 3.48534 6.253 3.29287C6.38839 3.01666 6.55629 2.75128 6.70251 2.49674C6.73777 2.43319 6.75987 2.3632 6.76751 2.29093C6.76751 2.13929 6.76751 1.98223 6.76751 1.82517C6.7653 1.79485 6.7692 1.7644 6.77897 1.73561C6.78873 1.70682 6.80417 1.68029 6.82436 1.65757C6.84456 1.63485 6.8691 1.61641 6.89655 1.60333C6.92399 1.59026 6.95377 1.58282 6.98414 1.58145C7.01614 1.58137 7.04781 1.58789 7.07718 1.6006C7.10655 1.6133 7.13298 1.63193 7.15483 1.6553C7.17669 1.67868 7.19349 1.70631 7.20419 1.73646C7.21489 1.76662 7.21926 1.79866 7.21702 1.83058V2.08513M7.0383 2.88668H6.97872C6.87041 3.0979 6.75667 3.31453 6.65919 3.53117C6.62366 3.60335 6.60867 3.68392 6.61586 3.76405C6.68709 4.06959 6.82383 4.35601 7.01664 4.60351C7.1412 4.37604 7.2441 4.17566 7.34159 3.97527C7.37968 3.89968 7.39952 3.8162 7.39952 3.73155C7.39952 3.64691 7.37968 3.56343 7.34159 3.48784C7.2441 3.28745 7.1412 3.09248 7.0383 2.89209" fill="#51BDC6"/>
<path d="M6.88122 6.65071C6.88438 6.68582 6.87893 6.72118 6.86533 6.75371C6.85173 6.78624 6.83039 6.81496 6.80317 6.83737C6.77596 6.85979 6.74368 6.87522 6.70915 6.88233C6.67461 6.88944 6.63887 6.88801 6.60501 6.87818C6.14074 6.76043 5.70201 6.55851 5.31062 6.28243C5.15087 6.15107 5.02153 5.98661 4.9315 5.80042C4.81383 5.51508 4.71611 5.22192 4.63905 4.92304C4.62705 4.8878 4.6241 4.85011 4.63048 4.81344C4.63686 4.77676 4.65235 4.74228 4.67554 4.71315C4.69873 4.68403 4.72887 4.66121 4.76319 4.64678C4.7975 4.63235 4.8349 4.62678 4.87193 4.63059C5.26326 4.67538 5.64622 4.77568 6.00926 4.92846C6.13242 4.97579 6.24427 5.04845 6.33756 5.14175C6.43086 5.23504 6.50352 5.34689 6.55085 5.47005C6.67542 5.84916 6.77832 6.2391 6.89205 6.62363H6.84872M6.30714 6.28243C6.18799 5.49713 5.81971 5.13968 5.13189 5.12885C5.20771 5.82208 5.71681 6.08204 6.30714 6.28243Z" fill="#51BDC6"/>
<path d="M6.88156 8.66544C6.88438 8.70065 6.87875 8.73604 6.86515 8.76864C6.85155 8.80125 6.83036 8.83014 6.80335 8.85291C6.77634 8.87569 6.74428 8.89169 6.70985 8.89959C6.67541 8.90748 6.63959 8.90705 6.60535 8.89832C6.13563 8.7783 5.6928 8.57067 5.30012 8.28632C5.13924 8.15742 5.01118 7.99224 4.92643 7.80431C4.80815 7.5253 4.71217 7.23736 4.63939 6.94319C4.62931 6.90885 4.62789 6.87256 4.63526 6.83754C4.64263 6.80252 4.65856 6.76988 4.68163 6.74252C4.70469 6.71516 4.73418 6.69394 4.76744 6.68076C4.80071 6.66758 4.83673 6.66284 4.87227 6.66698C5.23791 6.74007 5.59946 6.83226 5.95545 6.94319C6.10945 6.98511 6.2501 7.0659 6.3639 7.17781C6.4777 7.28971 6.56085 7.42898 6.60535 7.58226C6.7245 7.94512 6.81657 8.31882 6.91947 8.66544H6.88156ZM5.16473 7.14899C5.21749 7.44765 5.36317 7.72203 5.581 7.93306C5.79883 8.14408 6.0777 8.28097 6.37788 8.32424C6.31831 8.12385 6.25873 7.93429 6.19374 7.74474C6.16399 7.65217 6.11261 7.56802 6.04385 7.49927C5.9751 7.43051 5.89095 7.37913 5.79839 7.34938L5.16473 7.14899Z" fill="#51BDC6"/>
<path d="M7.10815 8.66544C7.15929 8.23018 7.27998 7.80596 7.4656 7.40896C7.54303 7.2738 7.6474 7.15599 7.77224 7.06282C7.89708 6.96966 8.03972 6.90314 8.19133 6.86737C8.48379 6.78613 8.78166 6.72656 9.07953 6.66698C9.12 6.65532 9.16291 6.65511 9.20349 6.6664C9.24406 6.67768 9.28071 6.7 9.30934 6.73088C9.33798 6.76177 9.35748 6.79999 9.36567 6.8413C9.37386 6.88261 9.37043 6.92539 9.35574 6.96486C9.27992 7.22121 9.19868 7.47576 9.11203 7.7285C9.06326 7.88423 8.98273 8.02816 8.87553 8.15121C8.76833 8.27426 8.63679 8.37374 8.4892 8.44339C8.13717 8.61128 7.77431 8.76293 7.40603 8.90374C7.24897 8.96873 7.10815 8.84417 7.10815 8.64919M7.64974 8.33507C7.94431 8.29279 8.21768 8.15757 8.43005 7.9491C8.64241 7.74063 8.78267 7.46981 8.8304 7.17608C7.90429 7.36563 7.87179 7.4902 7.67682 8.18343C7.67682 8.23217 7.67682 8.2755 7.64974 8.33507Z" fill="#51BDC6"/>
<path d="M7.10815 6.61822C7.15573 6.16921 7.28417 5.73251 7.48727 5.32924C7.56705 5.20425 7.67085 5.09633 7.79263 5.01174C7.91441 4.92714 8.05177 4.86754 8.19675 4.83639C8.48532 4.75362 8.77822 4.68672 9.07412 4.63601C9.11519 4.62368 9.15891 4.62321 9.20024 4.63466C9.24156 4.64611 9.27881 4.66901 9.30769 4.70071C9.33656 4.73242 9.35588 4.77164 9.36343 4.81385C9.37097 4.85606 9.36643 4.89955 9.35033 4.93929C9.28173 5.20648 9.20049 5.46644 9.10661 5.71918C9.05704 5.8673 8.97831 6.00399 8.87506 6.12119C8.77181 6.23839 8.64614 6.33373 8.50545 6.40158C8.148 6.57489 7.77972 6.72653 7.42228 6.87276C7.2598 6.93234 7.11899 6.8186 7.11899 6.61822M8.81957 5.15051C8.66597 5.14451 8.51277 5.17015 8.3695 5.22585C8.22622 5.28156 8.09594 5.36613 7.98673 5.47432C7.87753 5.58251 7.79174 5.712 7.7347 5.85475C7.67766 5.99749 7.65058 6.15044 7.65516 6.3041C8.24007 6.11454 8.73833 5.83833 8.81957 5.15051Z" fill="#51BDC6"/>
<path d="M6.91399 10.7018C6.91399 10.8697 6.75152 10.9942 6.60529 10.9455C6.11493 10.8101 5.65273 10.5882 5.24049 10.2902C5.04415 10.1128 4.90154 9.88386 4.82888 9.62944C4.75306 9.41822 4.6989 9.207 4.63932 8.99578C4.57975 8.78456 4.70973 8.64916 4.9047 8.69249C5.24471 8.75514 5.58101 8.83651 5.91205 8.9362C6.08522 8.98454 6.24299 9.07673 6.37012 9.20386C6.49725 9.33099 6.58944 9.48876 6.63778 9.66193C6.74068 10.0031 6.82192 10.3497 6.91399 10.6909M5.18091 9.207C5.26757 9.93272 5.77124 10.1981 6.38865 10.4039C6.31283 10.171 6.24784 9.9598 6.17202 9.754C6.1475 9.68031 6.10645 9.6132 6.052 9.55782C5.99756 9.50243 5.93116 9.46024 5.8579 9.43446C5.63584 9.35323 5.41379 9.28282 5.18091 9.207Z" fill="#51BDC6"/>
<path d="M7.1083 10.6802C7.1568 10.2486 7.27572 9.82779 7.46033 9.43459C7.53716 9.30001 7.64069 9.18254 7.76456 9.08941C7.88842 8.99628 8.03002 8.92944 8.18064 8.893C8.47852 8.80635 8.78181 8.74678 9.0851 8.6872C9.12546 8.67748 9.16771 8.67899 9.20727 8.69157C9.24684 8.70415 9.2822 8.72731 9.30954 8.75856C9.33688 8.7898 9.35515 8.82793 9.36236 8.86881C9.36958 8.9097 9.36547 8.95178 9.35047 8.99049C9.28007 9.23962 9.19883 9.48875 9.11759 9.73788C9.06636 9.89972 8.98216 10.0492 8.87031 10.1769C8.75846 10.3046 8.62137 10.4078 8.46769 10.4799C8.12107 10.6423 7.76904 10.7886 7.417 10.924C7.24911 10.9889 7.10288 10.8698 7.1083 10.6694M7.64989 10.3553C7.93903 10.3082 8.20638 10.1724 8.41498 9.96668C8.62358 9.76099 8.76312 9.49557 8.8143 9.20713C7.88277 9.38585 7.85028 9.51583 7.6553 10.2091C7.6553 10.2578 7.6553 10.3011 7.62822 10.3607" fill="#51BDC6"/>
<path d="M8.57525 3.04913V4.02399C8.57987 4.05673 8.57746 4.09008 8.56818 4.12182C8.55891 4.15356 8.54298 4.18296 8.52147 4.20807C8.49995 4.23317 8.47333 4.25341 8.44338 4.26743C8.41343 4.28144 8.38085 4.28892 8.34778 4.28937C8.21239 4.28937 8.12573 4.18647 8.12573 4.02399V2.07428C8.12573 1.9118 8.21239 1.8089 8.34778 1.8089C8.38085 1.80934 8.41343 1.81682 8.44338 1.83084C8.47333 1.84486 8.49995 1.8651 8.52147 1.8902C8.54298 1.91531 8.55891 1.94471 8.56818 1.97645C8.57746 2.00819 8.57987 2.04153 8.57525 2.07428V3.04913Z" fill="#51BDC6"/>
<path d="M5.86826 3.04913V4.01858C5.86826 4.18647 5.77619 4.28937 5.6408 4.28937C5.5054 4.28937 5.41333 4.18647 5.41333 4.02399C5.41333 3.37409 5.41333 2.72418 5.41333 2.07428C5.41333 1.9118 5.49998 1.8089 5.63538 1.8089C5.66844 1.80934 5.70103 1.81682 5.73098 1.83084C5.76093 1.84486 5.78755 1.8651 5.80906 1.8902C5.83058 1.91531 5.84651 1.94471 5.85578 1.97645C5.86506 2.00819 5.86746 2.04153 5.86285 2.07428V3.04913" fill="#51BDC6"/>
<path d="M5.07773 3.44987V4.02937C5.0815 4.05998 5.07915 4.09104 5.07082 4.12074C5.06249 4.15044 5.04834 4.17819 5.02919 4.20238C5.01004 4.22657 4.98628 4.24671 4.95928 4.26163C4.93229 4.27656 4.9026 4.28597 4.87193 4.28933C4.84004 4.28814 4.80875 4.28025 4.7801 4.26618C4.75146 4.2521 4.72609 4.23216 4.70566 4.20764C4.68523 4.18312 4.67019 4.15458 4.66151 4.12386C4.65283 4.09315 4.65071 4.06095 4.6553 4.02937C4.6553 3.63942 4.6553 3.24948 4.6553 2.85954C4.65025 2.8271 4.65228 2.79395 4.66125 2.76237C4.67022 2.73079 4.68593 2.70153 4.70728 2.67659C4.72864 2.65165 4.75513 2.63163 4.78496 2.61791C4.81478 2.60418 4.84722 2.59708 4.88005 2.59708C4.91289 2.59708 4.94533 2.60418 4.97515 2.61791C5.00497 2.63163 5.03147 2.65165 5.05283 2.67659C5.07418 2.70153 5.08989 2.73079 5.09886 2.76237C5.10783 2.79395 5.10986 2.8271 5.10481 2.85954V3.44987" fill="#51BDC6"/>
<path d="M9.36602 3.45001V3.9916C9.36602 4.16491 9.27395 4.26781 9.13855 4.26781C9.00316 4.26781 8.9165 4.15949 8.9165 3.99702V2.87593C8.9165 2.71345 9.00316 2.61055 9.13855 2.60514C9.27395 2.59972 9.36602 2.71345 9.36602 2.88676V3.42835" fill="#51BDC6"/>
<path d="M6.77281 11.7309C6.77281 11.5901 6.77281 11.4493 6.77281 11.3085C6.77057 11.278 6.77466 11.2474 6.78481 11.2185C6.79497 11.1897 6.81097 11.1632 6.83181 11.1409C6.85266 11.1185 6.8779 11.1007 6.90596 11.0885C6.93402 11.0763 6.96428 11.0701 6.99486 11.0702C7.02567 11.0702 7.05616 11.0764 7.08449 11.0885C7.11282 11.1006 7.13839 11.1183 7.15966 11.1406C7.18093 11.1629 7.19745 11.1893 7.20823 11.2181C7.219 11.247 7.2238 11.2777 7.22233 11.3085V12.1804C7.2238 12.2112 7.219 12.242 7.20823 12.2708C7.19745 12.2997 7.18093 12.3261 7.15966 12.3483C7.13839 12.3706 7.11282 12.3884 7.08449 12.4005C7.05616 12.4126 7.02567 12.4188 6.99486 12.4187C6.96428 12.4188 6.93402 12.4126 6.90596 12.4004C6.8779 12.3883 6.85266 12.3704 6.83181 12.3481C6.81097 12.3257 6.79497 12.2993 6.78481 12.2704C6.77466 12.2416 6.77057 12.2109 6.77281 12.1804C6.77281 12.0288 6.77281 11.8772 6.77281 11.7309Z" fill="#51BDC6"/>
</svg>
