<svg width="15" height="9" viewBox="0 0 15 9" fill="none" xmlns="http://www.w3.org/2000/svg">
<path d="M13.694 0.525083C13.6821 0.491591 13.6625 0.461343 13.6369 0.436756C13.6112 0.412168 13.5802 0.393924 13.5462 0.383483C13.5134 0.371824 13.4782 0.368533 13.4438 0.373908C13.4094 0.379283 13.3769 0.393154 13.3492 0.414265C12.5982 0.97718 11.7249 1.35477 10.8004 1.51629C9.56906 1.71945 8.4301 1.96572 7.46968 2.87689C7.22675 3.10082 7.01917 3.3603 6.85402 3.64646C6.64471 3.23379 6.37031 2.85753 6.04136 2.53212C5.21547 1.84254 4.19087 1.43486 3.11699 1.36853C2.31347 1.23366 1.55247 0.913238 0.894478 0.432735C0.86703 0.41099 0.835259 0.395349 0.801287 0.386856C0.767314 0.378363 0.731921 0.377213 0.697468 0.383483C0.662589 0.394063 0.630857 0.413082 0.605084 0.438855C0.579311 0.464629 0.560291 0.49636 0.549711 0.53124C-0.552312 3.09852 0.678999 6.68779 3.5972 7.56818C4.54475 7.84084 5.54788 7.85571 6.5031 7.61128C6.55572 7.59969 6.60253 7.56984 6.63522 7.527C6.66791 7.48417 6.68435 7.43114 6.68164 7.37733C6.62874 6.33596 6.76218 5.29352 7.07566 4.29905V4.26827C7.22843 3.86802 7.47058 3.50794 7.78366 3.2155C8.65173 2.39052 9.69219 2.16888 10.8619 1.98419C11.7582 1.83935 12.6127 1.5034 13.3677 0.999138C14.4697 4.11435 12.6904 8.86106 7.61743 8.5717C8.42459 6.97262 9.62864 5.60747 11.1144 4.60688C11.1554 4.58294 11.1885 4.54734 11.2093 4.50459C11.2301 4.46184 11.2378 4.41388 11.2313 4.36677C11.2273 4.32513 11.2128 4.2852 11.1891 4.25073C11.1654 4.21626 11.1333 4.1884 11.0959 4.16976C11.0598 4.14741 11.0183 4.13556 10.9758 4.13556C10.9334 4.13556 10.8918 4.14741 10.8558 4.16976C9.18391 5.25381 7.86564 6.80321 7.06334 8.62711C7.04661 8.65946 7.03788 8.69535 7.03788 8.73177C7.03788 8.76819 7.04661 8.80408 7.06334 8.83643C7.08306 8.86505 7.10862 8.88918 7.13833 8.90722C7.16804 8.92525 7.20123 8.9368 7.23573 8.94109C8.24078 9.04665 9.2568 8.94609 10.2217 8.64558C13.5339 7.62359 14.956 3.51101 13.694 0.525083ZM6.21374 6.68164C5.39428 5.44906 4.32705 4.4007 3.08005 3.60336C3.05473 3.58311 3.02547 3.56835 2.99414 3.56001C2.9628 3.55168 2.93008 3.54994 2.89804 3.55492C2.866 3.5599 2.83534 3.57149 2.80802 3.58894C2.7807 3.6064 2.7573 3.62934 2.73931 3.65632C2.72133 3.6833 2.70915 3.71372 2.70354 3.74566C2.69794 3.7776 2.69903 3.81035 2.70676 3.84184C2.71449 3.87333 2.72867 3.90287 2.74842 3.92859C2.76817 3.9543 2.79305 3.97563 2.82148 3.99122C4.1202 4.81124 5.20831 5.92466 5.99826 7.24188C1.90415 7.9191 -0.145979 3.8804 0.876008 0.999138C1.53344 1.42008 2.27159 1.69898 3.04311 1.81796C4.02242 1.86722 4.96053 2.22737 5.72122 2.8461C6.11254 3.22829 6.417 3.69023 6.61392 4.20055C6.35086 5.00757 6.21786 5.8513 6.2199 6.70011L6.21374 6.68164Z" fill="#819950"/>
</svg>
