<svg width="14" height="14" viewBox="0 0 14 14" fill="none" xmlns="http://www.w3.org/2000/svg">
<g clip-path="url(#clip0_277_5537)">
<path d="M7 14C5.61553 14 4.26216 13.5895 3.11101 12.8203C1.95987 12.0511 1.06266 10.9579 0.532846 9.67879C0.00303302 8.3997 -0.13559 6.99224 0.134506 5.63437C0.404603 4.2765 1.07129 3.02922 2.05026 2.05026C3.02922 1.07129 4.2765 0.404603 5.63437 0.134506C6.99224 -0.13559 8.3997 0.00303302 9.67879 0.532846C10.9579 1.06266 12.0511 1.95987 12.8203 3.11101C13.5895 4.26216 14 5.61553 14 7C13.9968 8.85555 13.2583 10.6342 11.9463 11.9463C10.6342 13.2583 8.85555 13.9968 7 14ZM7 0.262802C5.67259 0.266346 4.37596 0.662984 3.27373 1.40267C2.1715 2.14235 1.31305 3.19194 0.806709 4.41899C0.300365 5.64605 0.168812 6.99559 0.428648 8.29733C0.688484 9.59907 1.32807 10.7947 2.26669 11.7333C3.20532 12.6719 4.40094 13.3115 5.70268 13.5714C7.00442 13.8312 8.35396 13.6996 9.58101 13.1933C10.8081 12.687 11.8577 11.8285 12.5973 10.7263C13.337 9.62404 13.7337 8.32742 13.7372 7C13.7372 6.1161 13.5628 5.24089 13.224 4.4245C12.8852 3.60811 12.3887 2.86658 11.7628 2.24241C11.137 1.61823 10.3942 1.12366 9.57686 0.787043C8.75957 0.450423 7.8839 0.278363 7 0.28072V0.262802Z" fill="#00886D"/>
<path d="M5.81178 9.97439C5.78361 9.94942 5.74783 9.93469 5.71024 9.93258C5.67427 9.93402 5.64015 9.94894 5.61468 9.97439C5.44597 10.1336 5.25724 10.2701 5.05325 10.3805C4.55536 10.7036 3.95096 10.8193 3.36895 10.7031C2.98669 10.5179 2.98669 10.3746 2.98669 10.1536C2.98967 10.1018 2.98967 10.05 2.98669 9.99828C2.96943 9.88548 2.92282 9.77921 2.85153 9.69011C2.78025 9.60101 2.6868 9.5322 2.58055 9.4906C2.5097 9.46085 2.44491 9.41834 2.38943 9.36517C2.36512 9.19495 2.37941 9.02144 2.43123 8.85749C2.44241 8.82871 2.44439 8.79718 2.4369 8.76723C2.42941 8.73728 2.41283 8.71039 2.38943 8.69026C2.07884 8.55288 2.10871 8.39162 2.16246 8.25425C2.22219 8.059 2.26613 7.85927 2.29386 7.65698C2.29832 7.62708 2.2932 7.59654 2.27926 7.56973C2.26531 7.54291 2.24325 7.52119 2.21622 7.50766C1.94147 7.37626 1.61895 7.15527 1.61895 7.04179C1.6806 6.77184 1.7812 6.5123 1.91758 6.27131C2.04768 6.01906 2.15366 5.75509 2.23414 5.48292C2.25419 5.35636 2.24467 5.22687 2.20633 5.1046C2.168 4.98233 2.10187 4.87059 2.01315 4.77814C1.89267 4.62881 1.81614 4.44888 1.79216 4.25851C1.84209 3.61346 1.948 2.97396 2.10871 2.34725C2.11316 2.3296 2.11405 2.31124 2.11134 2.29324C2.10863 2.27524 2.10237 2.25795 2.09292 2.24239C2.08348 2.22683 2.07103 2.21331 2.05631 2.2026C2.04159 2.19189 2.02489 2.18421 2.00717 2.18002C1.97162 2.17261 1.93458 2.17897 1.90354 2.19782C1.8725 2.21666 1.84977 2.24659 1.83994 2.28155C1.6701 2.93313 1.56014 3.59887 1.51144 4.27046C1.54111 4.50977 1.6385 4.73563 1.79216 4.92148C1.91758 5.11261 1.98328 5.23206 1.94147 5.40527C1.86123 5.65845 1.75932 5.90424 1.63687 6.13991C1.46094 6.42194 1.3526 6.74083 1.32031 7.07166C1.36212 7.34043 1.76826 7.58531 1.98328 7.69879C1.95973 7.8537 1.92782 8.00722 1.88772 8.15869C1.85579 8.22435 1.83743 8.29577 1.83371 8.36868C1.83 8.4416 1.84101 8.51452 1.86609 8.58308C1.89118 8.65165 1.92982 8.71446 1.97972 8.76776C2.02961 8.82107 2.08973 8.86377 2.15649 8.89333C2.09309 9.08737 2.09309 9.29655 2.15649 9.4906C2.22224 9.58163 2.31083 9.65374 2.41332 9.69964C2.57458 9.78923 2.67014 9.85493 2.68209 9.97439V10.1536C2.68209 10.4283 2.68209 10.715 3.23158 10.9838C3.81337 11.1338 4.43078 11.0502 4.95171 10.7508L5.24437 10.6015C5.40894 10.5081 5.56485 10.4001 5.71024 10.279C6.03747 10.5921 6.27292 10.9886 6.39113 11.4257C6.4002 11.5449 6.38451 11.6646 6.34507 11.7774C6.30562 11.8902 6.24327 11.9936 6.16193 12.0811C6.08059 12.1686 5.98202 12.2383 5.87242 12.2859C5.76282 12.3335 5.64457 12.3578 5.52509 12.3575C5.23509 12.3916 4.94907 12.4536 4.671 12.5426C4.52765 12.5904 4.39028 12.6382 4.26485 12.692C4.05689 12.7557 3.86941 12.8731 3.72134 13.0324C3.71328 13.0488 3.70859 13.0667 3.70754 13.085C3.70649 13.1033 3.7091 13.1216 3.71522 13.1388C3.72134 13.1561 3.73085 13.1719 3.74318 13.1854C3.75551 13.199 3.77042 13.2099 3.78704 13.2176C3.80659 13.2229 3.82721 13.2229 3.84676 13.2176C3.87709 13.2167 3.90637 13.2063 3.93038 13.1877C3.93038 13.1877 3.93038 13.1877 3.96622 13.1459C4.11625 13.0386 4.28128 12.9541 4.45598 12.895C4.80935 12.7541 5.17828 12.6558 5.55495 12.6024C5.70763 12.6002 5.85829 12.5672 5.99791 12.5054C6.13754 12.4436 6.26325 12.3542 6.36754 12.2427C6.47182 12.1312 6.55252 11.9998 6.60481 11.8563C6.6571 11.7128 6.6799 11.5603 6.67185 11.4078C6.64796 10.8046 5.84164 10.0102 5.81178 9.97439Z" fill="#00886D"/>
<path d="M2.4191 7.35831C2.40321 7.36577 2.38588 7.36963 2.36833 7.36963C2.35078 7.36963 2.33345 7.36577 2.31756 7.35831L2.10254 7.24483C2.07561 7.22978 2.05577 7.20465 2.04736 7.17497C2.03896 7.14528 2.0427 7.11348 2.05775 7.08655C2.0728 7.05962 2.09793 7.03977 2.12761 7.03137C2.15729 7.02297 2.1891 7.02671 2.21602 7.04176L2.42507 7.15524C2.43854 7.16215 2.45048 7.1717 2.46021 7.1833C2.46993 7.19491 2.47724 7.20834 2.48169 7.22281C2.48614 7.23728 2.48765 7.2525 2.48614 7.26756C2.48462 7.28263 2.4801 7.29724 2.47285 7.31053C2.46027 7.3316 2.4415 7.34828 2.4191 7.35831Z" fill="#00886D"/>
<path d="M3.44639 5.93693C3.25767 5.9365 3.07021 5.90627 2.89093 5.84734C2.87315 5.84266 2.85656 5.83431 2.84222 5.82282C2.82787 5.81133 2.8161 5.79696 2.80766 5.78064C2.79921 5.76431 2.79429 5.7464 2.7932 5.72805C2.79211 5.70971 2.79488 5.69134 2.80133 5.67413C2.8066 5.65541 2.81577 5.63803 2.82826 5.62312C2.84074 5.60821 2.85624 5.59613 2.87374 5.58766C2.89125 5.57919 2.91035 5.57453 2.92978 5.574C2.94922 5.57346 2.96855 5.57705 2.98649 5.58454C3.40292 5.70824 3.85129 5.66319 4.23478 5.45912C4.25067 5.44999 4.26828 5.44428 4.2865 5.44237C4.30472 5.44046 4.32314 5.44237 4.34058 5.448C4.35801 5.45362 4.37408 5.46283 4.38775 5.47503C4.40141 5.48723 4.41238 5.50215 4.41994 5.51884C4.43708 5.55058 4.44105 5.58779 4.431 5.62243C4.42094 5.65708 4.39766 5.68637 4.36618 5.704C4.08472 5.85945 3.76791 5.93968 3.44639 5.93693Z" fill="#00886D"/>
<path d="M2.83852 4.94533C2.80093 4.94322 2.76516 4.92849 2.73698 4.90352C2.7238 4.89072 2.71332 4.8754 2.70616 4.85847C2.699 4.84155 2.69531 4.82335 2.69531 4.80497C2.69531 4.7866 2.699 4.7684 2.70616 4.75148C2.71332 4.73455 2.7238 4.71923 2.73698 4.70643C2.89794 4.54197 3.10718 4.43316 3.33425 4.39585C3.57267 4.36229 3.81556 4.40626 4.02708 4.52127C4.05898 4.54003 4.08239 4.5704 4.09241 4.60602C4.10243 4.64164 4.09828 4.67976 4.08084 4.7124C4.06522 4.73835 4.04177 4.75869 4.01387 4.7705C3.98598 4.7823 3.95505 4.78496 3.92555 4.7781C3.76752 4.69009 3.58493 4.65651 3.40592 4.68253C3.22817 4.70898 3.06316 4.79044 2.93408 4.91547C2.90685 4.93659 2.87293 4.94719 2.83852 4.94533Z" fill="#00886D"/>
<path d="M2.38814 9.6459H2.31647C2.29831 9.64303 2.28091 9.63653 2.2653 9.6268C2.24969 9.61708 2.2362 9.60432 2.22562 9.58928C2.21503 9.57424 2.20758 9.55723 2.20369 9.53925C2.1998 9.52128 2.19957 9.50271 2.20299 9.48464C2.20553 9.46377 2.21264 9.44371 2.2238 9.42589C2.23496 9.40807 2.2499 9.39292 2.26757 9.38152C2.28524 9.37012 2.3052 9.36275 2.32604 9.35993C2.34688 9.3571 2.36808 9.3589 2.38814 9.36519C2.64497 9.41297 2.86596 9.00085 2.98541 8.72013C2.80501 8.69495 2.63199 8.63185 2.47773 8.53498C2.41381 8.49133 2.34155 8.46136 2.26549 8.44697C2.18942 8.43258 2.11121 8.43408 2.03576 8.45136C2.01725 8.46102 1.9968 8.46633 1.97593 8.4669C1.95507 8.46746 1.93436 8.46327 1.91536 8.45464C1.89636 8.446 1.87958 8.43315 1.86629 8.41706C1.853 8.40097 1.84355 8.38206 1.83866 8.36177C1.83309 8.34452 1.831 8.32634 1.8325 8.30827C1.834 8.29021 1.83906 8.27262 1.84739 8.25651C1.85572 8.24041 1.86715 8.22612 1.88103 8.21446C1.8949 8.2028 1.91095 8.194 1.92825 8.18856C2.04196 8.16128 2.16009 8.15781 2.2752 8.17837C2.39032 8.19893 2.49995 8.24307 2.59719 8.30802C2.76457 8.40553 2.95315 8.46088 3.14668 8.46928C3.16836 8.46946 3.18975 8.47437 3.20934 8.48365C3.22894 8.49293 3.24628 8.50637 3.26016 8.52304C3.27061 8.54229 3.27609 8.56384 3.27609 8.58575C3.27609 8.60765 3.27061 8.62921 3.26016 8.64846C3.24821 8.75 2.98541 9.6459 2.38814 9.6459Z" fill="#00886D"/>
<path d="M2.60317 9.01874C2.48021 9.01828 2.3585 8.99393 2.24481 8.94707C2.22768 8.93995 2.21217 8.92943 2.19921 8.91615C2.18625 8.90287 2.17612 8.88711 2.16942 8.8698C2.16272 8.8525 2.1596 8.83402 2.16024 8.81548C2.16088 8.79693 2.16527 8.77871 2.17314 8.76191C2.18038 8.74127 2.19225 8.72256 2.20784 8.70721C2.22343 8.69186 2.24232 8.68028 2.26308 8.67336C2.28383 8.66645 2.30589 8.66437 2.32758 8.6673C2.34926 8.67022 2.36998 8.67807 2.38816 8.69024C2.50354 8.7427 2.63338 8.75413 2.75615 8.72262C2.87892 8.69112 2.98722 8.61857 3.06307 8.51703C3.08969 8.49183 3.12496 8.47778 3.16162 8.47778C3.19828 8.47778 3.23355 8.49183 3.26017 8.51703C3.28411 8.54428 3.29731 8.57931 3.29731 8.61558C3.29731 8.65185 3.28411 8.68688 3.26017 8.71413C3.18264 8.81334 3.08263 8.8927 2.9684 8.94566C2.85417 8.99862 2.72899 9.02367 2.60317 9.01874Z" fill="#00886D"/>
<path d="M10.4535 13.0683C10.434 13.0743 10.4132 13.0743 10.3937 13.0683C9.60102 12.6818 8.91464 12.1077 8.39421 11.3958C7.87378 10.6838 7.53503 9.85557 7.40738 8.98297C7.36178 8.59645 7.33984 8.2075 7.34168 7.81829C7.34168 7.58536 7.34168 7.34048 7.34168 7.10157C7.33478 6.49125 7.1613 5.8944 6.83997 5.37546C6.40082 4.79648 5.79394 4.36686 5.10192 4.14509C4.89287 4.06147 4.67786 3.98382 4.46881 3.91215C3.95691 3.7489 3.46108 3.53898 2.98759 3.28502C2.55322 3.04259 2.18428 2.69824 1.9125 2.28161C1.9027 2.26631 1.896 2.24923 1.89279 2.23135C1.88959 2.21347 1.88994 2.19513 1.89382 2.17738C1.90166 2.14154 1.92342 2.11028 1.95431 2.09048C1.9852 2.07068 2.02269 2.06396 2.05853 2.0718C2.09437 2.07964 2.12563 2.1014 2.14543 2.13229C2.40151 2.50947 2.74333 2.82059 3.14288 3.04014C3.59777 3.28159 4.07354 3.48149 4.56438 3.63741L5.20346 3.87631C5.94627 4.12238 6.59773 4.58651 7.07291 5.20823C7.4072 5.76842 7.58654 6.40743 7.59253 7.05976C7.59253 7.29867 7.59253 7.54355 7.59253 7.78246C7.59159 8.16154 7.61153 8.54038 7.65226 8.91727C7.77485 9.74443 8.09729 10.5292 8.59165 11.2036C9.08601 11.878 9.73737 12.4217 10.4893 12.7876C10.5165 12.8025 10.5382 12.8258 10.551 12.8541C10.5638 12.8824 10.5671 12.9141 10.5604 12.9444C10.5536 12.9747 10.5372 13.002 10.5136 13.0222C10.4901 13.0424 10.4605 13.0544 10.4296 13.0563L10.4535 13.0683Z" fill="#00886D"/>
<path d="M11.6756 12.1186C11.654 12.1239 11.6315 12.1239 11.6099 12.1186C10.8586 11.7201 10.2118 11.15 9.72197 10.4548C9.23216 9.75949 8.91313 8.95856 8.79076 8.11693C8.74394 7.72051 8.72199 7.32155 8.72506 6.92239C8.72506 6.68945 8.72506 6.44457 8.72506 6.21164C8.72472 5.60822 8.56172 5.01606 8.25322 4.49747C7.81407 3.91849 7.20719 3.48887 6.51517 3.2671C6.30612 3.18348 6.09111 3.10583 5.88206 3.03416C5.37642 2.88203 4.88643 2.68203 4.41875 2.43689C3.93124 2.16648 3.52498 1.77053 3.24213 1.29013C3.22517 1.25678 3.22193 1.21812 3.23309 1.18241C3.24425 1.1467 3.26893 1.11677 3.30186 1.09901C3.31774 1.08988 3.33536 1.08418 3.35358 1.08226C3.3718 1.08035 3.39022 1.08226 3.40765 1.08789C3.42509 1.09351 3.44115 1.10272 3.45482 1.11492C3.46849 1.12712 3.47945 1.14205 3.48701 1.15873C3.73974 1.58347 4.10035 1.93378 4.53223 2.17409C4.98596 2.418 5.46196 2.618 5.95373 2.77136L6.59281 3.01027C7.33563 3.25633 7.98709 3.72047 8.46227 4.34218C8.79656 4.90238 8.97589 5.54139 8.98189 6.19372C8.98189 6.43263 8.98189 6.68348 8.98189 6.91641C8.98094 7.29549 9.00088 7.67434 9.04162 8.05123C9.15816 8.84921 9.46118 9.60849 9.92608 10.2674C10.391 10.9264 11.0047 11.4665 11.7174 11.8439C11.7335 11.8521 11.7478 11.8634 11.7595 11.8772C11.7712 11.8909 11.7801 11.9069 11.7857 11.9241C11.7912 11.9413 11.7933 11.9594 11.7919 11.9774C11.7904 11.9954 11.7854 12.013 11.7771 12.029C11.7681 12.0507 11.7542 12.07 11.7366 12.0855C11.719 12.101 11.6982 12.1123 11.6756 12.1186Z" fill="#00886D"/>
<path d="M12.6629 11.0137C12.6374 11.0198 12.6108 11.0198 12.5853 11.0137C11.9418 10.5945 11.3956 10.0423 10.9835 9.39427C10.5714 8.74623 10.303 8.01741 10.1962 7.25689C10.1506 6.87036 10.1287 6.48141 10.1305 6.09221C10.1305 5.85928 10.1305 5.6144 10.1305 5.38146C10.1302 4.77805 9.96717 4.18589 9.65867 3.6673C9.21496 3.06686 8.59479 2.62001 7.88478 2.38914C7.67574 2.30552 7.46072 2.23385 7.25168 2.1562C6.74449 2.00302 6.25261 1.80307 5.78239 1.55893C5.35023 1.31308 4.98354 0.966883 4.71328 0.549549C4.70348 0.534254 4.69678 0.517178 4.69358 0.499296C4.69037 0.481413 4.69072 0.463075 4.6946 0.445327C4.69848 0.427579 4.70582 0.41077 4.7162 0.395859C4.72658 0.380948 4.7398 0.368227 4.75509 0.358423C4.77038 0.348618 4.78746 0.341923 4.80534 0.338718C4.82323 0.335513 4.84156 0.335861 4.85931 0.339744C4.87706 0.343626 4.89387 0.350966 4.90878 0.361344C4.92369 0.371723 4.93641 0.384937 4.94622 0.400232C5.19565 0.776634 5.5315 1.08791 5.92574 1.30808C6.37947 1.55199 6.85547 1.75199 7.34724 1.90535L7.98632 2.14426C8.72948 2.39587 9.38049 2.86385 9.85577 3.48812C10.1893 4.04865 10.3685 4.68744 10.3754 5.33965C10.3754 5.57856 10.3754 5.82941 10.3754 6.06235C10.3743 6.44143 10.3942 6.82029 10.4351 7.19716C10.5349 7.92286 10.7897 8.61857 11.1824 9.23695C11.5751 9.85533 12.0963 10.3819 12.7107 10.7808C12.7374 10.7959 12.7583 10.8195 12.77 10.8479C12.7817 10.8762 12.7835 10.9077 12.7753 10.9372C12.7671 10.9668 12.7492 10.9927 12.7245 11.0109C12.6998 11.0291 12.6697 11.0385 12.639 11.0376L12.6629 11.0137Z" fill="#00886D"/>
<path d="M13.3867 9.61605C13.3701 9.61663 13.3536 9.61375 13.3382 9.60758C13.3227 9.60141 13.3088 9.59208 13.2971 9.58021C12.3245 8.73364 11.6885 7.56564 11.5053 6.28925C11.4646 5.90438 11.4446 5.51758 11.4456 5.13055C11.4456 4.89762 11.4456 4.65273 11.4456 4.41383C11.4398 3.81225 11.2749 3.22292 10.9678 2.70564C10.53 2.12523 9.92264 1.69527 9.22974 1.47526C9.02069 1.39164 8.80568 1.314 8.59663 1.24233C8.08198 1.07386 7.5841 0.85791 7.10943 0.597274C6.92863 0.495127 6.75855 0.37507 6.60175 0.238912C6.57655 0.21229 6.5625 0.177023 6.5625 0.140363C6.5625 0.103703 6.57655 0.0684356 6.60175 0.0418135C6.62837 0.0166095 6.66364 0.00256348 6.7003 0.00256348C6.73696 0.00256348 6.77223 0.0166095 6.79885 0.0418135C6.94425 0.164701 7.10014 0.274621 7.26472 0.370312C7.72012 0.610703 8.19579 0.810564 8.68622 0.967581L9.3253 1.20649C10.0681 1.45255 10.7196 1.91669 11.1948 2.5384C11.5317 3.09743 11.7113 3.73719 11.7144 4.38994C11.7144 4.62884 11.7144 4.87372 11.7144 5.11263C11.7134 5.49171 11.7334 5.87056 11.7741 6.24744C11.9504 7.45377 12.552 8.55738 13.4703 9.35922C13.493 9.37717 13.5093 9.40178 13.5171 9.42956C13.525 9.45735 13.5238 9.48688 13.5139 9.51399C13.504 9.54109 13.4858 9.56439 13.4619 9.58056C13.438 9.59674 13.4096 9.60497 13.3808 9.6041L13.3867 9.61605Z" fill="#00886D"/>
<path d="M13.8155 7.63908C13.793 7.63964 13.7708 7.63445 13.751 7.624C13.7311 7.61354 13.7142 7.59817 13.702 7.57935C13.2762 6.93173 13.0007 6.19707 12.8957 5.42918C12.8551 5.04229 12.8352 4.65351 12.836 4.2645C12.836 4.04351 12.836 3.81655 12.836 3.59556C12.8427 3.56328 12.8603 3.5343 12.8858 3.51349C12.9114 3.49268 12.9434 3.48132 12.9763 3.48132C13.0093 3.48132 13.0412 3.49268 13.0668 3.51349C13.0924 3.5343 13.11 3.56328 13.1167 3.59556C13.1167 3.82252 13.1167 4.04949 13.1167 4.27048C13.1157 4.64956 13.1357 5.0284 13.1764 5.40529C13.2783 6.13029 13.5394 6.82377 13.9409 7.436C13.9613 7.46775 13.9683 7.50624 13.9605 7.54314C13.9526 7.58003 13.9306 7.61236 13.8991 7.6331C13.8722 7.64216 13.8434 7.64422 13.8155 7.63908Z" fill="#00886D"/>
<path d="M5.25134 10.5119C5.25453 10.5377 5.25453 10.5638 5.25134 10.5895C5.25134 10.6732 5.25134 10.7508 5.25134 10.8284C5.16205 11.4298 4.96584 12.0104 4.67199 12.5426C4.60629 12.668 4.53462 12.7935 4.45697 12.9129C4.28227 12.972 4.11724 13.0565 3.96721 13.1638C3.96721 13.1638 3.96721 13.1936 3.93137 13.2056C3.92913 13.1877 3.92913 13.1697 3.93137 13.1518C4.04439 13.0052 4.14812 12.8516 4.24195 12.6919C4.59956 12.1136 4.83154 11.4664 4.92284 10.7926V10.7508C4.92284 10.6732 4.92284 10.5895 4.92284 10.5059C4.92391 10.4839 4.93049 10.4626 4.94197 10.4438C4.95344 10.425 4.96946 10.4094 4.98854 10.3984C5.01213 10.393 5.03663 10.393 5.06021 10.3984C5.08012 10.3898 5.10178 10.3861 5.12342 10.3875C5.14505 10.3889 5.16605 10.3954 5.18469 10.4065C5.20333 10.4175 5.21909 10.4329 5.23067 10.4512C5.24226 10.4695 5.24934 10.4903 5.25134 10.5119Z" fill="#00886D"/>
<path d="M2.69321 12.483C2.6676 12.4814 2.64288 12.473 2.62163 12.4586C2.60038 12.4443 2.58338 12.4245 2.57239 12.4013C2.56141 12.3781 2.55685 12.3524 2.55919 12.3268C2.56153 12.3013 2.57069 12.2768 2.5857 12.256C2.9072 11.8284 3.15916 11.3527 3.33229 10.8465C3.3457 10.8122 3.3718 10.7844 3.40515 10.7688C3.43851 10.7533 3.47658 10.7511 3.51147 10.7629C3.54684 10.7751 3.57602 10.8007 3.59276 10.8342C3.6095 10.8677 3.61248 10.9064 3.60106 10.942C3.41558 11.4744 3.14751 11.9742 2.80669 12.4233C2.79312 12.4407 2.77597 12.4551 2.7564 12.4654C2.73683 12.4757 2.71529 12.4817 2.69321 12.483Z" fill="#00886D"/>
<path d="M1.54839 11.3003C1.52287 11.3064 1.49627 11.3064 1.47075 11.3003C1.43925 11.2795 1.4172 11.2472 1.40937 11.2103C1.40154 11.1734 1.40857 11.1349 1.42894 11.1032C1.77568 10.597 2.02296 10.0294 2.15761 9.43083C2.16112 9.41258 2.16831 9.39523 2.17873 9.37984C2.18914 9.36445 2.20257 9.35133 2.21821 9.34128C2.23384 9.33123 2.25136 9.32445 2.26968 9.32137C2.28801 9.31828 2.30678 9.31894 2.32484 9.32332C2.3598 9.33315 2.38973 9.35588 2.40858 9.38692C2.42742 9.41797 2.43378 9.455 2.42638 9.49056C2.28789 10.131 2.02841 10.7392 1.66187 11.2824C1.64521 11.293 1.62653 11.3001 1.607 11.3032C1.58747 11.3063 1.56752 11.3053 1.54839 11.3003Z" fill="#00886D"/>
<path d="M0.599183 9.616C0.579785 9.62238 0.558853 9.62238 0.539456 9.616C0.506352 9.60155 0.480271 9.57465 0.466857 9.54111C0.453442 9.50758 0.453775 9.47011 0.467783 9.43682C0.654991 9.01935 0.779762 8.57661 0.83809 8.12282C0.878836 7.74794 0.898775 7.37108 0.897817 6.99399C0.897817 6.75508 0.897817 6.5102 0.897817 6.26532C0.910934 5.61263 1.09861 4.97537 1.44133 4.41975L1.50106 4.33614C1.51334 4.32312 1.52815 4.31275 1.54459 4.30566C1.56102 4.29858 1.57873 4.29492 1.59662 4.29492C1.61452 4.29492 1.63223 4.29858 1.64866 4.30566C1.66509 4.31275 1.6799 4.32312 1.69219 4.33614C1.7071 4.34632 1.71986 4.35935 1.72974 4.37447C1.73962 4.38959 1.74641 4.40651 1.74974 4.42427C1.75307 4.44202 1.75286 4.46025 1.74914 4.47793C1.74541 4.4956 1.73824 4.51236 1.72802 4.52726L1.67427 4.59893C1.36881 5.10821 1.20393 5.68942 1.19645 6.28323C1.19645 6.52214 1.19645 6.76105 1.19645 6.99399C1.19829 7.38319 1.17635 7.77214 1.13075 8.15866C1.06746 8.64181 0.93259 9.11284 0.730582 9.55627C0.716378 9.57744 0.696564 9.59424 0.673359 9.60478C0.650153 9.61533 0.62447 9.61922 0.599183 9.616Z" fill="#00886D"/>
</g>
<defs>
<clipPath id="clip0_277_5537">
<rect width="14" height="14" fill="white"/>
</clipPath>
</defs>
</svg>
