<svg width="15" height="9" viewBox="0 0 15 9" fill="none" xmlns="http://www.w3.org/2000/svg">
<g clip-path="url(#clip0_277_18703)">
<path d="M0.613917 1.08275L0.915588 0.744141L2.1469 1.31054L3.91383 1.67378C4.2599 1.85119 4.61547 2.00945 4.97891 2.14783C5.22823 2.27794 5.4652 2.43043 5.68692 2.60342C5.77926 2.64652 6.73969 3.93939 6.73969 3.93939L6.45033 5.81714L6.30257 7.1408L5.93318 7.36859L4.18472 7.53482L2.22693 6.45126L1.37733 5.47853L0.613917 4.14871L0.398438 2.96666L0.613917 1.08275Z" fill="#819950"/>
<path d="M6.39453 7.30087L6.61001 4.68433L7.52118 3.16367L8.87562 2.2525L10.7349 1.77844L12.5141 1.24898L13.216 0.953463L13.5484 0.744141L13.7147 1.70456V4.19797L13.019 6.13728L11.6153 7.85496L10.0577 8.52602L8.46313 8.82769L7.21951 8.72303L7.10254 8.70456L6.42531 7.44863L6.39453 7.30087Z" fill="#819950"/>
<path d="M13.692 0.51013C13.6801 0.476638 13.6606 0.446389 13.6349 0.421802C13.6093 0.397215 13.5782 0.378971 13.5442 0.368529C13.5114 0.35687 13.4762 0.35358 13.4418 0.358955C13.4074 0.36433 13.3749 0.378201 13.3472 0.399312C12.5963 0.962226 11.7229 1.33982 10.7984 1.50133C9.56711 1.7045 8.42815 1.95076 7.46772 2.86193C7.2248 3.08587 7.01722 3.34534 6.85207 3.6315C6.64276 3.21884 6.36836 2.84258 6.0394 2.51717C5.21351 1.82759 4.18892 1.41991 3.11504 1.35358C2.31152 1.2187 1.55052 0.898285 0.892525 0.417781C0.865076 0.396037 0.833306 0.380396 0.799333 0.371903C0.765361 0.36341 0.729968 0.362259 0.695515 0.368529C0.660636 0.379109 0.628904 0.398128 0.603131 0.423902C0.577357 0.449675 0.558338 0.481407 0.547758 0.516286C-0.554265 3.08357 0.677046 6.67284 3.59525 7.55323C4.54279 7.82588 5.54593 7.84076 6.50114 7.59632C6.55376 7.58474 6.60058 7.55488 6.63327 7.51205C6.66595 7.46922 6.6824 7.41618 6.67968 7.36237C6.62679 6.32101 6.76022 5.27856 7.0737 4.2841V4.25331C7.22647 3.85306 7.46863 3.49299 7.78171 3.20054C8.64978 2.37557 9.69024 2.15393 10.86 1.96923C11.7562 1.8244 12.6108 1.48845 13.3657 0.984184C14.4677 4.0994 12.6885 8.8461 7.61548 8.55674C8.42263 6.95767 9.62669 5.59251 11.1124 4.59192C11.1535 4.56798 11.1865 4.53238 11.2074 4.48964C11.2282 4.44689 11.2358 4.39892 11.2294 4.35182C11.2254 4.31018 11.2109 4.27024 11.1872 4.23577C11.1635 4.20131 11.1314 4.17344 11.0939 4.15481C11.0579 4.13245 11.0163 4.12061 10.9739 4.12061C10.9315 4.12061 10.8899 4.13245 10.8538 4.15481C9.18196 5.23886 7.86369 6.78825 7.06139 8.61215C7.04466 8.6445 7.03592 8.68039 7.03592 8.71681C7.03592 8.75324 7.04466 8.78913 7.06139 8.82148C7.08111 8.8501 7.10667 8.87422 7.13638 8.89226C7.16609 8.9103 7.19928 8.92184 7.23377 8.92614C8.23882 9.03169 9.25484 8.93114 10.2197 8.63062C13.5319 7.60863 14.9541 3.49606 13.692 0.51013ZM6.21179 6.66668C5.39232 5.43411 4.3251 4.38575 3.0781 3.58841C3.05278 3.56816 3.02352 3.5534 2.99218 3.54506C2.96085 3.53672 2.92812 3.53499 2.89609 3.53997C2.86405 3.54495 2.83339 3.55653 2.80607 3.57399C2.77874 3.59144 2.75535 3.61439 2.73736 3.64137C2.71937 3.66835 2.70719 3.69877 2.70159 3.73071C2.69599 3.76264 2.69708 3.79539 2.70481 3.82688C2.71253 3.85838 2.72672 3.88792 2.74647 3.91363C2.76622 3.93935 2.7911 3.96068 2.81953 3.97627C4.11825 4.79629 5.20635 5.9097 5.99631 7.22693C1.9022 7.90415 -0.147932 3.86545 0.874055 0.984184C1.53149 1.40513 2.26963 1.68403 3.04116 1.80301C4.02047 1.85227 4.95858 2.21241 5.71926 2.83115C6.11058 3.21333 6.41505 3.67528 6.61196 4.18559C6.34891 4.99261 6.21591 5.83634 6.21794 6.68515L6.21179 6.66668Z" fill="white"/>
</g>
<defs>
<clipPath id="clip0_277_18703">
<rect width="14" height="8.63149" fill="white" transform="translate(0.148438 0.36853)"/>
</clipPath>
</defs>
</svg>
