<svg width="28" height="14" viewBox="0 0 28 14" fill="none" xmlns="http://www.w3.org/2000/svg">
<path d="M4.30014 12.614L3.91172 12.5141C3.11133 12.3196 2.36876 11.9373 1.74543 11.3989C1.12209 10.8605 0.635905 10.1814 0.327086 9.41777C-0.0249844 8.50776 -0.0947059 7.51278 0.127011 6.56257C0.348728 5.61235 0.851597 4.75098 1.57005 4.09076C2.1779 3.58607 2.81331 3.11553 3.47335 2.68132C3.88846 2.39196 4.28506 2.0769 4.66083 1.738C4.85102 1.57524 5.00288 1.37245 5.10553 1.14413C5.20817 0.915819 5.25907 0.667632 5.25457 0.417345V0.372953C5.25457 0.200935 5.36555 0.112152 5.50427 0.112152C5.53803 0.111219 5.57159 0.117461 5.60276 0.130467C5.63392 0.143473 5.66197 0.162945 5.68505 0.187597C5.70813 0.212249 5.72571 0.241519 5.73664 0.273472C5.74756 0.305424 5.75158 0.339332 5.74842 0.372953C5.75891 0.719546 5.85449 1.05824 6.02674 1.35918C6.19898 1.66013 6.44261 1.91409 6.73614 2.09868C7.29104 2.5204 7.84593 2.89773 8.43412 3.29726C9.01641 3.68207 9.53977 4.14936 9.98783 4.6845C10.7004 5.56638 11.0585 6.68228 10.9922 7.81412C10.8979 10.0337 9.67709 11.4598 7.69611 12.3088C7.35426 12.439 7.00608 12.552 6.65291 12.6473C6.75834 12.8526 6.87486 13.0634 6.98029 13.2743C7.0112 13.328 7.0195 13.3918 7.00337 13.4516C6.98724 13.5115 6.948 13.5625 6.89429 13.5934C6.84057 13.6243 6.77678 13.6326 6.71694 13.6164C6.6571 13.6003 6.60613 13.5611 6.57522 13.5074C6.45869 13.2965 6.34216 13.0856 6.24228 12.8692C6.23394 12.839 6.21971 12.8106 6.20041 12.7859C6.1811 12.7611 6.1571 12.7404 6.12978 12.725C6.10246 12.7095 6.07236 12.6996 6.0412 12.6958C6.01004 12.6919 5.97843 12.6943 5.94819 12.7028C5.8705 12.7028 5.79282 12.7028 5.69848 12.736V13.7404C5.70489 13.7918 5.69112 13.8436 5.66007 13.885C5.62902 13.9264 5.58311 13.9541 5.53201 13.9624C5.49194 13.9678 5.45119 13.9652 5.41213 13.9547C5.37308 13.9442 5.33649 13.9261 5.30451 13.9013C5.25853 13.8388 5.23506 13.7625 5.23792 13.6849C5.23792 13.4186 5.23792 13.13 5.23792 12.8803C5.23792 12.7582 5.19908 12.7139 5.077 12.7028C4.79955 12.7028 4.79955 12.7028 4.66638 12.9303L4.38338 13.4297C4.28905 13.6072 4.16142 13.6683 4.02825 13.5961C3.89507 13.524 3.87842 13.3908 3.97276 13.2077C4.06709 13.0246 4.18362 12.8026 4.30014 12.5918M3.05163 11.6873C2.91845 11.5319 2.78528 11.3821 2.6632 11.2212C2.06335 10.4109 1.69854 9.45087 1.6089 8.4467C1.48588 7.46231 1.6396 6.46312 2.05281 5.56124C2.13605 5.38922 2.25258 5.32263 2.3913 5.37812C2.53002 5.43361 2.56332 5.57233 2.48563 5.7499C1.96594 6.92446 1.90652 8.2514 2.31916 9.46771C2.57728 10.4187 3.16794 11.2457 3.98385 11.7983C4.11703 11.8871 4.26685 11.9536 4.40557 12.0313C4.41447 12.0043 4.41447 11.9751 4.40557 11.9481C4.14695 11.5127 3.95962 11.0388 3.85068 10.5442C3.4987 9.12931 3.42147 7.66002 3.62317 6.21601C3.66049 5.95255 3.71236 5.69135 3.77854 5.43361C3.78305 5.40381 3.79374 5.37529 3.80991 5.34986C3.82609 5.32444 3.84739 5.30267 3.87247 5.28595C3.89754 5.26924 3.92583 5.25794 3.95552 5.25279C3.98521 5.24764 4.01565 5.24875 4.04489 5.25604C4.07504 5.26133 4.10381 5.27265 4.12948 5.28931C4.15515 5.30598 4.17719 5.32766 4.19428 5.35304C4.21138 5.37843 4.22318 5.407 4.22897 5.43705C4.23477 5.46711 4.23444 5.49802 4.22801 5.52794C4.22801 5.57788 4.22801 5.62227 4.22801 5.67221C4.16697 6.044 4.09483 6.41578 4.05599 6.78201C3.97916 7.63425 3.99963 8.49247 4.11703 9.34008C4.18424 10.0599 4.37181 10.7633 4.67193 11.4209C4.80212 11.665 4.96656 11.8893 5.16023 12.0868C5.19756 12.1352 5.24548 12.1743 5.30031 12.2013C5.35515 12.2282 5.41543 12.2423 5.47652 12.2423C5.53762 12.2423 5.5979 12.2282 5.65273 12.2013C5.70757 12.1743 5.75549 12.1352 5.79282 12.0868C5.87173 12.0293 5.93943 11.9579 5.99258 11.876C6.17365 11.5693 6.33311 11.2504 6.46979 10.9215C6.76361 10.0521 6.92085 9.14236 6.9359 8.22474C7.00827 6.9587 6.81939 5.69131 6.38101 4.50138L5.54866 2.33174C5.52687 2.27363 5.50834 2.21435 5.49317 2.15417C5.28786 2.66468 5.0881 3.16408 4.88279 3.65794C4.85003 3.7458 4.78435 3.81745 4.69967 3.8577C4.66055 3.86761 4.61954 3.8672 4.58063 3.8565C4.54172 3.8458 4.50626 3.82518 4.47771 3.79666C4.45147 3.75602 4.4344 3.71014 4.42769 3.66223C4.42098 3.61431 4.42479 3.56551 4.43887 3.51922C4.57204 3.15298 4.72741 2.79785 4.87169 2.43717C4.91053 2.34284 4.93828 2.24295 4.97157 2.14307C4.63863 2.39833 4.33344 2.64803 4.0116 2.88109C3.36792 3.3472 2.69649 3.76892 2.08611 4.26833C1.43916 4.76784 0.950402 5.44371 0.678683 6.21456C0.406964 6.98542 0.363871 7.81839 0.554593 8.61317C0.682527 9.21862 0.938967 9.78955 1.30657 10.2873C1.67418 10.7851 2.14438 11.1982 2.6854 11.4986C2.79638 11.5652 2.9129 11.6263 3.02943 11.6873M6.29222 2.92548L6.65845 3.94649C7.12398 5.0382 7.36913 6.21116 7.37982 7.39794C7.38344 8.08007 7.34824 8.76184 7.27439 9.43996C7.19942 10.329 6.93046 11.1909 6.48644 11.9647C6.4833 11.9887 6.4833 12.0129 6.48644 12.0369C6.98783 11.8196 7.42805 11.4823 7.76825 11.0547C8.46739 10.1798 8.86013 9.09961 8.88619 7.97996C8.91225 6.8603 8.5702 5.76303 7.91252 4.85652C7.47415 4.30162 6.99139 3.74672 6.52528 3.19183L6.29222 2.91438M6.78608 2.77566L7.4908 3.59135C8.04542 4.17383 8.51269 4.83361 8.87804 5.55014C9.34724 6.56586 9.48507 7.70344 9.27202 8.80183C9.1107 9.89276 8.60524 10.9037 7.82929 11.6873C7.80701 11.7116 7.78661 11.7376 7.76825 11.765C7.8158 11.75 7.86217 11.7314 7.90697 11.7095C8.7448 11.3399 9.44783 10.7202 9.91969 9.93543C10.3916 9.15064 10.6092 8.23912 10.5427 7.32581C10.4788 6.33149 10.0684 5.39102 9.383 4.66785C8.60111 3.94176 7.73918 3.30694 6.81383 2.77566" fill="#F39980"/>
</svg>
