<svg width="13" height="14" viewBox="0 0 13 14" fill="none" xmlns="http://www.w3.org/2000/svg">
<g clip-path="url(#clip0_251_29086)">
<path d="M6.94536 4.04869C7.45304 4.02107 7.95314 4.18112 8.35052 4.49839C8.74791 4.81566 9.01484 5.268 9.10052 5.76936C9.16562 6.15458 9.1449 6.54943 9.03982 6.92571C8.93474 7.30199 8.74791 7.65042 8.49265 7.94611C8.21578 8.30974 7.86266 8.60829 7.45811 8.8208C7.05357 9.0333 6.60741 9.15459 6.15099 9.17615C5.80281 9.20444 5.453 9.14681 5.13227 9.00831C4.81154 8.8698 4.5297 8.65467 4.31147 8.38177C4.09324 8.10888 3.94531 7.78657 3.88064 7.44314C3.81597 7.0997 3.83656 6.74564 3.94058 6.41202C4.11854 5.7442 4.50699 5.15159 5.04827 4.72212C5.58956 4.29265 6.25483 4.04922 6.94536 4.02795M6.05429 8.56804C6.62025 8.54864 7.16447 8.34521 7.60448 7.98858C8.04448 7.63194 8.35629 7.14154 8.49265 6.59168C8.55805 6.35671 8.56571 6.1094 8.51497 5.87082C8.46423 5.63225 8.3566 5.40948 8.20125 5.22148C8.0459 5.03349 7.84743 4.88585 7.62274 4.79114C7.39806 4.69643 7.15382 4.65745 6.91083 4.67752C6.49616 4.68339 6.0895 4.79262 5.72766 4.99533C5.36582 5.19804 5.06023 5.48783 4.83856 5.83846C4.53737 6.23278 4.39668 6.7266 4.44483 7.22052C4.48 7.60506 4.66481 7.96037 4.95942 8.20986C5.25403 8.45934 5.63484 8.58302 6.01975 8.55422" fill="#819950"/>
<path d="M11.6833 1.04274C11.4156 0.903993 11.1386 0.783928 10.8544 0.683401C10.3599 0.53734 9.83932 0.501864 9.32961 0.579487C8.81989 0.65711 8.33347 0.845932 7.90483 1.13257C7.62853 1.29842 7.35913 1.47118 7.06902 1.62321C6.36989 1.96608 5.61351 2.17692 4.83788 2.24513C3.4658 2.41697 2.20221 3.0797 1.28049 4.11092C0.705135 4.68191 0.302639 5.40382 0.119334 6.19357C-0.0639701 6.98332 -0.0206313 7.8088 0.244362 8.57499C0.468322 9.19363 0.79017 9.77225 1.1976 10.2888C1.8305 11.2201 2.6233 12.0319 3.53926 12.6866C4.32429 13.2552 5.25265 13.5927 6.21939 13.661C7.19331 13.686 8.15342 13.4267 8.98241 12.9147C9.8207 12.4769 10.5016 11.7884 10.9303 10.9452C11.2529 10.1991 11.3881 9.38538 11.3241 8.57499C11.3241 8.27785 11.3241 7.97379 11.3241 7.66974C11.323 7.46749 11.394 7.27148 11.5244 7.11691C12.1951 6.31661 12.6683 5.36976 12.9059 4.35278C12.9549 4.10624 12.9895 3.85704 13.0095 3.60647C12.9712 3.11208 12.8341 2.63042 12.6063 2.19003C12.3785 1.74964 12.0646 1.3595 11.6833 1.04274ZM3.1179 11.0627C2.05522 10.5217 1.23966 9.5946 0.838411 8.47134C0.590065 7.8005 0.540075 7.07232 0.694418 6.37382C0.848761 5.67532 1.20091 5.03606 1.70876 4.53245C2.53991 3.59603 3.68489 2.99627 4.92768 2.84633C5.76275 2.75616 6.57597 2.52238 7.3315 2.1553C7.62162 1.99636 7.89792 1.8236 8.18113 1.65085C8.7171 1.31447 9.33748 1.13715 9.97019 1.13948C10.514 1.1449 11.0408 1.32949 11.4691 1.66467C11.5373 1.72063 11.5917 1.79157 11.628 1.87198C11.8212 2.28409 11.905 2.7391 11.8711 3.19304C11.8372 3.64699 11.6869 4.08451 11.4346 4.46335C11.2993 4.69376 11.1369 4.90718 10.9511 5.0991C10.2498 5.84027 9.72143 6.72761 9.40377 7.69738C9.24275 8.21837 9.02743 8.72097 8.76137 9.19692C8.4394 9.76825 8.00243 10.2665 7.47809 10.6602C6.95374 11.054 6.35344 11.3345 5.71514 11.4842C4.82726 11.6774 3.89919 11.5268 3.1179 11.0627ZM12.3118 4.2284C12.3118 4.32514 12.2704 4.41498 12.2497 4.50481C12.0058 5.32597 11.5994 6.08972 11.0547 6.75067C10.8666 6.97533 10.7639 7.25922 10.7646 7.55226C10.7646 8.07745 10.7646 8.60263 10.7646 9.12782C10.7693 9.71851 10.6225 10.3005 10.3383 10.8183C10.0541 11.3361 9.64201 11.7724 9.14128 12.0854C8.48544 12.5763 7.71941 12.8989 6.91014 13.0252C6.14744 13.1229 5.37296 12.9906 4.68591 12.6452C4.29218 12.4517 3.91918 12.2098 3.53235 11.9541C3.96316 12.0484 4.39907 12.1176 4.83788 12.1615C5.92005 12.1918 6.97694 11.8312 7.81503 11.1456C8.77549 10.4305 9.48806 9.43251 9.85276 8.29167C9.99178 7.81616 10.1721 7.35372 10.3915 6.9096C10.6053 6.50563 10.8649 6.12767 11.1652 5.78322C11.6728 5.26473 12.0782 4.65521 12.3602 3.98654C12.3464 4.05564 12.3326 4.14547 12.3118 4.2284Z" fill="#819950"/>
</g>
<defs>
<clipPath id="clip0_251_29086">
<rect width="13" height="13.1227" fill="white" transform="translate(0 0.531372)"/>
</clipPath>
</defs>
</svg>
